/* XPM */
static char *faae284e808d478081b8e71184b5825aY8mDljB588097eW4[] = {
/* columns rows colors chars-per-pixel */
"64 64 172 2 ",
"   c #5C5A5C",
".  c #5D5C5D",
"X  c #595759",
"o  c #585658",
"O  c #585758",
"+  c #595859",
"@  c #5B5A5B",
"#  c #5F5E5F",
"$  c #5E5D5E",
"%  c #5A595A",
"&  c gray35",
"*  c #575657",
"=  c #545354",
"-  c #525052",
";  c #4F4E4F",
":  c #4F4D4F",
">  c #504F50",
",  c #4D4C4D",
"<  c #4A494A",
"1  c #474647",
"2  c #464446",
"3  c #454445",
"4  c #444344",
"5  c #424142",
"6  c #414041",
"7  c #4D4B4D",
"8  c #1E1E1E",
"9  c #181818",
"0  c #1B1B1B",
"q  c gray8",
"w  c #151515",
"e  c gray10",
"r  c #161616",
"t  c #191919",
"y  c gray11",
"u  c #1D1D1D",
"i  c gray9",
"p  c gray13",
"a  c #4C4B4C",
"s  c #1A191A",
"d  c #4C4C4C",
"f  c #686868",
"g  c #2A2A2A",
"h  c gray7",
"j  c #353535",
"k  c #717171",
"l  c gray28",
"z  c #111111",
"x  c #202020",
"c  c #777777",
"v  c gray45",
"b  c gray39",
"n  c #8B8B8B",
"m  c gray20",
"M  c #464646",
"N  c #989898",
"B  c gray37",
"V  c #101010",
"C  c #222222",
"Z  c gray56",
"A  c #868686",
"S  c #727272",
"D  c #9F9F9F",
"F  c #373737",
"G  c #9D9D9D",
"H  c #5D5D5D",
"J  c gray6",
"K  c #898989",
"L  c gray50",
"P  c #676767",
"I  c gray54",
"U  c #313131",
"Y  c gray25",
"T  c gray32",
"R  c #4E4C4E",
"E  c #3A3A3A",
"W  c #3C3C3C",
"Q  c gray18",
"!  c #131313",
"~  c gray21",
"^  c gray26",
"/  c gray17",
"(  c #494949",
")  c gray31",
"_  c #252525",
"`  c gray29",
"'  c #505050",
"]  c gray23",
"[  c #434343",
"{  c gray34",
"}  c gray33",
"|  c #2F2F2F",
" . c #585858",
".. c gray15",
"X. c #0E0E0E",
"o. c #3E3E3E",
"O. c #555555",
"+. c gray14",
"@. c #3F3F3F",
"#. c #4B4B4B",
"$. c #504E50",
"%. c #343434",
"&. c #272727",
"*. c gray12",
"=. c #444444",
"-. c #2C2C2C",
";. c #535353",
":. c gray24",
">. c gray27",
",. c #5A5A5A",
"<. c #5F5F5F",
"1. c #2D2D2D",
"2. c #484848",
"3. c gray40",
"4. c #797979",
"5. c gray53",
"6. c gray51",
"7. c gray44",
"8. c #606060",
"9. c #232323",
"0. c #929292",
"q. c #848484",
"w. c #6D6D6D",
"e. c #959595",
"r. c #626262",
"t. c #808080",
"y. c #282828",
"u. c gray16",
"i. c gray19",
"p. c gray22",
"a. c #323232",
"s. c #646464",
"d. c #7B7B7B",
"f. c #393939",
"g. c gray48",
"h. c #838383",
"j. c gray36",
"k. c #747474",
"l. c #7C7C7C",
"z. c gray47",
"x. c #656565",
"c. c #7E7E7E",
"v. c gray46",
"b. c #565656",
"n. c #5B5B5B",
"m. c #8E8E8E",
"M. c gray52",
"N. c gray43",
"B. c gray60",
"V. c #939393",
"C. c #888888",
"Z. c #6F6F6F",
"A. c #979797",
"S. c #767676",
"D. c #414141",
"F. c gray30",
"G. c #4E4E4E",
"H. c #515151",
"J. c gray42",
"K. c gray59",
"L. c gray62",
"P. c #9A9A9A",
"I. c gray38",
"U. c #818181",
"Y. c #6C6C6C",
"T. c #6A6A6A",
"R. c gray61",
"E. c gray55",
"W. c gray49",
"Q. c DimGray",
"!. c #8D8D8D",
"~. c gray57",
/* pixels */
"  . X o O + @ # $   % & % % @ + * * o o * = - ; : ; ; ; > ; , < 1 2 2 3 4 5 6 6 5 4 3 2 2 1 < , ; > ; ; : ; - = * o o * * o % % ",
". o o 7 8 9 0 q w e 9 0 r q e e 0 t q 9 y e u q i 8 e 8 i q y 0 u 0 q t u 0 8 w r 8 e 8 i q y e u e q t y e y q r y t p a o o . ",
"X o a s d f g q h j k l z w x c v t w h b n m h z M N B V q C Z A t w z S D F z z l G H J q C K L i w h P I U h z Y I T r a o X ",
"o R 9 e E W Q z ! ~ ^ W w z / ( ) _ J 0 ` ' ] J h [ { } r J | {  ...X.y } & o.X.h l O.' w J | } O.+.J y d ) E z q @.#.l q r $.o ",
"o %.] ~ w z &.^ ^ *.z e =.M %.V h @.) ( q J -.O. .+.! *.;. .:.J z >.,.T w X.Q  .<.&.J 0 T { ] J h ^ T d q V 1.;.O.C J 0 2.d j o ",
"O %.3.^ z w *.P b 9 r ! ,.4.Q ! z o.5.O.V q p I 6.t w w 7.N ~ z V M G 8.J q 9.0.q.t i h w.e.j h z [ Z { V q 9.q.c 8 t ! r.t.1.O ",
"@ 1.9.Q u r / &.1.g w ..| y.m t u j u.E C i j i.p.a.w -.o.j W t *.W -.:.+.i F U ~ U w -.p.Q ] 9 *.] u.E p i %.Q %.%.0 u.a./ %.@ ",
"# e w w l { -.h z E s.l z h +.w.f 0 h q <.d.f.J J >.6.H h q &.g.v y h ! f h.f.J J M 6.j.V z ..k.k y h q b 4.%.V V =.l.} V h _ # ",
"$ e q w M { Q z h E r.d z h _ w.P y h w <.z.f.V J =.t.j.V z &.c k.8 z q x.c.f.J J M L ,.V z &.v w.y h w b v.%.V V [ c b.q h &.$ ",
"  -.+.i.u w -.g Q u.w ..m / ~ 9 0 F -.o.C r j %.f.i.! u.] a.W 9 8 W Q Y C w F j E U q g f.a.] i u W | @.x r %.i.F 1.q g f.| j   ",
"% %.3.^ h w 8 P b i r h n.L i.! z o.I  .V q C m.M.t w z N.B.F z V =.N H J q 9.V.C.t w h Z.A.%.h V M B.j.V q C t.S.i w w 3.6.i.% ",
"& U p.p.w z &.:.D.p V e ^ 2.~ V ! W d d r J Q ;. ...X.y ' O.:.J h [ T F.w J U & ,...X.u O.;.] J h [ ' #.w V Q F.G.C V y l T @.& ",
"% u h t @.=.i.z q j l ^ q V y.) ;.9.J 0 H.,.:.J z =.n.} w J Q ,.H _ J y ;.B @.J z =.n.O.q J Q { n.9.J 0 ) O.p.J h @.F.[ q i %.% ",
"@ i r ! ' N./ q e E z.H.z w x g.S.e w h J.K.j h V M L.8.J q C m.A t w ! 7.P.~ h V M D I.J q +.m.U.9 w ! P K U h z Y q.G.V w 9.@ ",
"+ ..q 9.-._ Q 9 +.F g %.x i a.g a.Q w / F / E e x W / :._ 9 p.i.~ a.w -.f.Q ] t x ] / o.+.i ~ i.j i.r / %./ F 9 *.j ..j x i i.+ ",
"* j  .Y h ! p j.H x 0 i H.Y.%.z V Y l.{ z h _ c S.u h ! P q.E J J =.q.B J z ..g.S.y h q P L F V V =.l.O.z h _ w.P e ! w b.f i.* ",
"* j & Y h ! C  .n.0 t y } f %.V z Y k. .z z &.v S 8 z w r.c.E J V >.d.n.V z &.v k 8 h w b c ~ V V =.k.;.h h &.P I.0 h r ;.P m * ",
"o +.q p 1.&.| r 0 a.&.] +.r i.Q j Q ! y.] U E 9 u W i.D.C w ~ j ] | ! u.E U E i u ] | @.p w %.U f.Q ! &.F Q %.r y F g ~ u r | o ",
"o i r q ' T.g ! h E c d i e x d.z.t w z J.e.~ h z =.R.8.V q p E.A 9 w h Y.A.%.h z [ B.n.V q C M.4.9 r h b h.1.! z @.U.#.V w x o ",
"* *.z 0 o.o.a.z q p.o.D.0 r -.` ) _ J y G.;.W J ! D.H.) r J 1.G.} _ J u ) ' E J ! =.b.F.w V Q F.H.9.J y 2.2.j V ! :.>.@.q z u.* ",
"= m D.W w z ..=.=.x z t 2.;.D.t h @.;.) w J -.{ ,._ X.e ;.H W X.z ^ ,.;.q J -.O.& u.i p T b.F J h @.H.( ! V / F.G.p V e =.( i.= ",
"- %.J.M z w *.I.I.t w h B E.W e h @.E.& V q C 5.t.t w z w.N ~ z V =.P.B J q C M.W.t 9 e T.C.i.! z D.C.;.V q C c Y.i r ! { v.-.- ",
"; 1.p | *.r -.+.-.u.w u.a.g f.u 8 j ..f.9.i j Q j U r -.F -.] e p ] u.] +.9 ~ 1.m | w -.E | F 9 *.~ ..F C 9 a.y.| g w &.-...U ; ",
": t q q d B 1.h z E S T V h 9.Y.T.y ! q H g.p.V J >.t.n.V z _ W.d.u h q r.c.~ V V [ z.T ! e &.7.J.e ! w r.c a.z z :.T.( z ! 9.: ",
"; e ! r #.,.| z z @.Q.d h h +.f 3.u h w H 7.F V J =.d.& z z &.c v.u h w 8.k.F V V Y k ;.V w 1.J.3.0 h w <.7.a.V z Y P #.z h _ ; ",
"; | ..a.*.r -.1.m / ! _ ~ 1.F i 0 p.1.W x q %.j ] Q ! ..f.m W i y ] Q o.x w m m F -.q &.f.U ] i 8 f.1.W *.w U i.~ / q _ U Q a.; ",
"> %.J.>.h w 8 Y.x.i r h B L i.! z @.Z ,.V w C I q.t w h Y.e.%.h z ^ V. .J w C h.v.i r ! Q.K i.e 0 [ K O.V w C d.7.r r ! H l.-.> ",
"; m E E r z &.@.Y p V 0 =.l ~ V ! @.` 2.i z Q ) } ..X.u G.G.] V ! D.F.( w J 1.d ) +.J u ` ` ~ i 0 Y l M w V -.2.( p V y ^ >.m ; ",
", 8 z t o.[ i.z h p.( =.w V u.H.' 9.V t G. .f.J z ^ j.H.q J -. . .9.J e ' b.p.J z Y b.G.q V g O.& p V e F.T %.V h W d =.q z u., ",
"< 9 r ! G.T.1.! h p.S.G.z w x z.v 9 w h I.!.~ h V =.K.j.J q C K L 9 w h P n a.h z [ !.O.V q C W.c 9 w ! 3.5.i.h z D.U.G.z q C < ",
"1 &.w +.g C U t u i.9.m C i a.u.| Q r / m g f.e x ] y.E _ 9 F Q m U r / a.u.f.t x p...F 9.9 %.g a.| r / a.y.%.9 *.m _ %.x 9 i.1 ",
"2 %.j.=.z ! C H j.e q q { N.m z V Y z.;.z h _ S.k.y h q s.6.f.V V ^ L { V ! ..S.N.0 ! q I.g.j z V ^ z.T z h +.f b t ! q ,.7.Q 2 ",
"2 %.{ ^ h h 9.& { y h w ;.f m V V Y 7.T z z ..Y.N.8 h w 8.z.E J V [ S.O.V z &.7.T.u h w <.Z.j V V Y N.H.z h _ <.I.0 h w b.s.| 2 ",
"3 _ ! p U / U r e m u.j u w Q i.~ -.! _ f.a.] r 0 W U Y p q m m E Q h &.] %.E r y ] | o.*.w m m F / ! ..~ i.F i y %./ p.y q | 3 ",
"4 t r ! T S -.! h f.d.F.z w x g.v.9 r h x.!.m h z D.K.8.i w x C.t.9 w h T.0.%.h z D.0.,.J w C 5.S.i r h 3.A i.q z @.U.G.V w p 4 ",
"4 u.h 0 W o.a.z q F Y D.r z 1.>.( +.J y ` d f.V ! D.#.) 8 r i.F.H.+.J u F.G.E J ! @.( #.r J Q ` d +.J u 2.( %.V q W [ D.w V / 4 ",
"5 ] >.Y q z ..( #.x V t >.d ~ V z @.} d q J g  .& 9.J 0 O.8.D.J z D.n.' q J / { & C J e G. .f.J h Y } #.q V u.H.T x V e ( ' m 5 ",
"5 f.Z.l z w *.Y.f 9 w ! ,.z.| ! z Y n  .V q p U.W.t w h f Z W r z [ V.j.J q C M.W.9 w h f I m h z [ n O.V q 9.c w.i w ! H d.-.5 ",
"6 Q C | x i 1.&.-./ r y.| _ m e *.j _ p.+.9 %./ a.i.r -.%.y.] 9.9.p...f.+.9 j g U i.r / m y.f.e *.~ _ F 9.t m y.| -.r g Q ..m 6 ",
"6 t q q d x.| h z f.Q.#.z ! C T.f 0 ! q B c.F V V D.W.b.z h _ z.c u h ! s.t.~ V V =.c.b.V h ..k.N.e ! w & N.U z V Y k.G.V q _ 6 ",
"5 0 ! w ` H i.z h f.<.2.z h +.r.b u h r ,.k F V V ^ k b.z z &.N.N.*.! w H k.p.J V =.k.O.V z &.J.Y.y h r b.P i.V z Y f d ! e u.5 ",
"4 i.u.%.u ! -.-.U ..h C %.| j w e f.| o.*.q a.j f.-.h ..] j W r y Y f.@.u q m %.] -.h ..] a.p.i y f.| E u q | | ~ u.h +.~ j f.4 ",
"3 ~ k l h w *.Y.x.i r h & c.i.! z o.m.n.V w p q.l.9 r z Y.A.~ h z M B.,.J w p K U.9 r h P E.U ! z ^ E.} V w p g.w.i r ! <.c.U 3 ",
"2 m f.] r z u.:.@.p V y D.D.%.z q :.M ` i V 1.l d ..J u d ) :.V ! Y d #.r V Q d ' _ J 8 2.#.E V q Y l l r z 1.>.M p V u ^ [ a.2 ",
"2 *.z 9 Y ( a.z h p.d #.w z y.G.G.C V t ' & f.J z D. .) ! J /  . .p J t ;.,.f.J z [ & T q J 1.{ { p J e #.) a.J h W ) >.! V u.2 ",
"1 9 w q G.Z.Q h h W c.T z w x v.N.t w h s.n %.h h D.E.,.J q C q.W.9 w h P Z j z V [ ~.j.V q C c.S.i w ! H d.-.! h :.g.d V q C 1 ",
"< y.r ..g C i.t *.U C a.p 9 i.y.1.Q r / i.&.F y 9.p._ F _ t j g U U i 1.a.u.E 0 p p._ F +.e ~ u.i.| i g 1...m t x U p m 9.t U < ",
", j 8.^ h ! p b H e q q T J.U z z :.k.T z h +.v.Z.y ! ! 8.c.F V V [ q.j.V h _ g.S.0 ! q s.L ~ V V =.z.' V ! _ T.r.t q q ,.Y.| , ",
"; j } Y h ! +.n.O.0 ! w d <.U z z :.f ) z h ..P x.u h w j.7.F J V =.S.b.V z &.Z.J.8 z r B v ~ V V [ Y.F.z h &.8.j.0 h r } 8.i.; ",
"> _ ! x U g | w t a.u.m y i %.i.j g h +.F a.F w e ] U o.8 ! a.j W 1.z ..W j ] w 0 :.a.D.8 q a.j E / h ..p.a.%.q e ~ -.p.u w | > ",
"; 9 r ! ) T.u.q ! j 7.M z 0 &.c w.9 r ! I.5.i.! z Y Z ,.V w p I L 9 r z T.K.%.h z >.N H V w C 5.4.i r ! b h.Q ! h o.t.G.V w p ; ",
"; x z 0 F p.Q h q %.p.f.r ! 1.2.2.9.V u =.>.~ V q :.M 2.i V Q #.G._ X.u ` d E V q D.( d r V | ` F.+.J 8 >.=.~ z q ] Y D.w z / ; ",
": m [ ] q h _ >.l u z 9 =.` i.q 0 W d l q V y.) } p V t F. .f.J z ^ j.' ! J -.H j.9.J t T n.p.J z Y b.` ! V g H.H.x z t M #.| : ",
"; a.r.^ h w *.<.n.i r ! ) Y./ ! w Y v.F.z q x v.N.9 w h b C.m h z ^ 0.j.J q 9.K W.t w h f E.a.h z =.C.} V q C k.T.i w q & S g ; ",
"- g u g *.i g p &.g i ..y.C i.e 8 m ..m C t U ..1.Q i g i...F 0 C p._ p...e ~ g i.U i Q a.y.p.y p F +.j +.e m ..1./ r y./ 9.i.- ",
"= 9 w w =.O.y.! h ~ n.^ h ! p j. .0 0 r O.Q.| h z o.v.T V h +.S Z.0 ! ! b L ~ V V [ 6. .V h &.c Z.e ! q <.S i.z z W w.2.z ! 9.= ",
"* t ! r @.d g h h %.G.o.h ! 9.T ' 0 q y } B U z z W x.F.z h ..s.3.*.! w n.7.p.V V [ k b.z z u.Y.P x ! r ;.s.U V z ] B >.z h +.* ",
"o 1.+.1.e q u.u.Q +.! x | / | w t U u.f.+.9 -.Q %.y.h +.f.U ~ w e E i.:.u ! U j W -.h ..] j p.i x @.i.f.y q | U ~ ..h 9.m / 1.o ",
"o a.r.Y h w 8 j. .i r q #.f u.q ! m T.l w i *.N.s.i r h B t.| ! z @.I O.V w x h.4.i r ! x.E.i.h h =.C.d V w p k.P r r !  .k &.o ",
"* a.%.j r ! +.U j 8 h 0 %.F Q z q U j F r h u.] @.C z u Y ^ %.z q W [ =.r z -.=.#.+.V 8 =.=.j V q W 2.=.r z / o.D.p V y W ] U * ",
"o R 9 9 F W u.h ! a.Y f.q h 9.o.W 0 h 9 @.=.Q z h f.2.^ q V y.G.F.x V 9 ` T %.J z :.H.2.! V y.) ;.*.z x 2.F.| V h p.( Y ! i ; o ",
"o o a s ^ T _ q ! U 8.W h w 8 b.) r r q ( <.&.q h p.Y.M z w p 7.f 9 w ! n.4.1.! h :.d.G.z q p k.f i w t ,.k u.! h p.w.M i a o o ",
"% o o 7 y r 9 q w t r 9 r q 9 r i 9 q i 9 r t w r e r e i w e 9 t t q 9 t i 0 w r 0 i 0 i q e i t t q 9 e t 0 w r e r *.a o o % ",
"  . X o O + @ # $   % & % % @ + * * o o * = - ; : ; ; ; > ; , < 1 2 2 3 4 5 6 6 5 4 3 2 2 1 < , ; > ; ; : ; - = * o o * * o % % "
};
