/* XPM */
static char *result[] = {
/* columns rows colors chars-per-pixel */
"64 64 34 1 ",
"  c #060606",
". c #0C0C0C",
"X c #10100F",
"o c #141414",
"O c #181817",
"+ c #1C1C1C",
"@ c #21211F",
"# c #201F20",
"$ c #242423",
"% c #272826",
"& c #292927",
"* c #282728",
"= c #2C2C2B",
"- c #2F302E",
"; c #30302F",
": c #343433",
"> c #373836",
", c #383738",
"< c #3B3B3B",
"1 c #3F403E",
"2 c #403F40",
"3 c #444443",
"4 c #474845",
"5 c #484947",
"6 c #4C4C4B",
"7 c #4F504E",
"8 c #545452",
"9 c #575855",
"0 c #585956",
"q c #5B5C5A",
"w c #60615E",
"e c #646462",
"r c #696967",
"t c #6C6C6A",
/* pixels */
">3>2:=<<<3o*##=####$*$*=#$*=*=-=**$#+*:=::*:$*--=-,<>*3,=:::->2,",
"<,3<,=**:2O-=*=#$$**=->:=,>><><:>=$$=>>:<,>:=-<<:<,33:6<,::<::=:",
"<34<>=$$=<o*:%+++#$$=>-=-:::>-::-*#*-:*-::=*=:,:-=-,:=34<<2<1::-",
"24252$#*:;o-:##+++#60==>:,<q8=****#36**=:=*21:-=**-<2*6536347::,",
"<<2,&+-<:-.=*o=$O++:<#,2,<23:$=$*-=-*+=>=*-=*+=--=-:-$6674>:-$:<",
",<:,&&>2>=o#+@=$+#==+<23<23>*,:*-::-$*<>::-2+#=--::-*=5762:>=>=-",
"$,,::=;,>* ooooXo++++######+#+++#++++##+++#+++OO+++#++<76:<232:*",
"-2<;,;<::<X  XXXXXO. Oo++O+..OO+oooX.Oo+OOO..OoOoo+..#774124542=",
"<1<-*=-*13$: OO+o+#oo**$#++XX#$*#+#oo$+#*$#Oo+++++#OO*545368653:",
",<<*$*#:2:#5:==$$*=:<,<*=:====<=:=::,:<::<,:>::**::>=$<32:4765<:",
"o++oOo  O##<2*O .+oo#++..ooo+o$.X++o#O*.o$+O+o$.X+O+#$$O  XooXoX",
"=<>65=oO+::87<:==<::<:**=====:<=:::,,::,23<2::,,:=#13==OX*+26**#",
"#,2<-=.XXo:<:=1%o##X.+X+o+oX +X++O+O.+X*O#$o.+o++$#==#O oo$--$:#",
"#>>=$>+#$*#>::<<=:<=*=-:::==$=:-=:=:=::<,<,:::===+#*O.O$*:$$#=--",
"#-<==>O X+oO31:**+oo+o+.X$oooO#.X+oo#+*oo*O#+o+$$$=$X.+.X#-3:::=",
"O$=::<OO+*$*#::#=<*+*#*#******$++#*#-=:$*===$+=$-==Xo#$+O$22-,-$",
"#=:,:3O#$#*##+$:=:2:o+$=-**++$*$*#$+$=:-=**+#:==:$o X$#$##$,<2,*",
"#=><:3ooOO+..+o>::>3,O+#++#..+OoOo+..++$$+O.$=:*=Oo .ooooX+242<*",
"$-=:32++*-=:**-O*:226,=:*::=:--=*:,<2,<<>>::$::-+o*-;:--=*262232",
"o-=36:o. +O+oo+..<:<2<:O.*o#oooo +O$O##o *>1313+ +o+O++X.#374<43",
"+:->:*#$*=::===$#+=**#23:<<:*=:*::::-<<>:<::=$#+*=:,::,-:>31$=43",
"$:::=-.oOO+..+OOooo:#*18,O+..+oOOo+..+O$<1::+X ooo+..+++OO37:<3<",
"#>><3-#*:=***=*$=:>$-:>272==::>:::,,::=<31<:Oo*=:*-$*,-,>:43><>:",
"#=>32<o.+#++#o+.+#*+O<2<171+*+$X+$##$*<<33<OXo#.++++*#$X++2>:1>:",
"*:3225O.o##++o#o+$$**O,2<3q<#$$XO+##$<2<32o.++#oO+#+$$*o##<3=::>",
"$2>336+*--:*=*:=::1<<>#<3336::-**:==<:22<+o#==--**,=-><<2-,2=-23",
"$>,228X.OXO .+O+#O+ o##O2211>*ooOoO::,:>o.o .+oooX+ X#++$o<,-:33",
"$22683+$=*$===::>>><,2<<#2664>=*#-=64><OX*****$*$-::>>2243<33>33",
"*772=-Xo Oo#oo#O.$O$o++o.#1<**>+o*-:==#  +.+.XO. #o*OO$+.*<<==76",
"=973><+$==*===:::,-::::->2*-$-=*==::#oO=**$$#*==-,<<:<42:-12=307",
":8664<ooOOOX Oo#++#o +o$$*#.=-*$=<<<O X#+OX..oo++#$. $+*+O373893",
":651>7O+*$$++#*-=*:$#*=::::#O*$#=>>$.#=:$#++O#*==-:**:=-<:567533",
"=62=14O+#*$##$=$$---=-:**--=*$$$$-,*+=:$+$#$*$=$=:=::--==:9q4745",
"#,,>27O..*OooO#XX$o+++*+o*+$<$*#*=>2>o#..+OOO+*oo*+++O*Oo=083773",
"+::=>5O*,<:*=:::==>>,,>3<>:6,=:***=493***-,*:22,,22:=,2,3,883<72",
"+,:476oo#o+.XO#O+o# +$##$*397*:+X#39qe1o+.+.O$$##o# O##+*o896:63",
"$,3>=<#:<,,>::,:=:<<22<:2723,$oO$#62:<e<$*:<<<>>223<:<1<<<73::72",
"*525:7+ o$OO#oO.o#++*O*+3364:.o X++6>353<oOO+O$.O*++++=.O#22=331",
"=75q7e$:,<:,2-=::<262<<26943*$,:>>:*56-37:*:>>:*:<>121>:>><,33>:",
"*38q9e+*=$$+o++$**=+o:4<638* o+*##+Xo<3362>Oo$#$+#$++*#**+:2::::",
"$60wqe+*=$$oX##=*$*o#<<<,:$..$####+o.#:33175.$=*#$=++*$**#>:-=:*",
"*29q79=:2<,:::>::,:::,::-oX$:<:*->*:,-o3636t6<2::122323:<<:>=--,",
"$17368# +#oo#+$ o+$,<=:=O.oo$o*.O++o*+#o769792*.+$$O*+*.++:>--:<",
"=63798$:>:>-<2<:::256*:Oo*==::2:>=:>22<:$58qr9424<2<1<>::>>64,<<",
"*831:1ooOo#.o#+O#31<:#o +o+.X++o+o+.o++++O63::q3#O$.o#OO+o:>*=>>",
":585<7#$::>>:>:=<<<=$X+*-:*=====:-2-:<<<>>=6-3q8<-<::::***:>::>,",
"*8899w+ O#++$+*32-=-O # X+Oo+o#.o##O*+*.o$#O87749<O+#O#.o+13322>",
"=6989w#$==-**$2:>>%oO$=##**$***+*---==:*=:::*5<48q<#$##O+$31223<",
":7934w#=:**+:7,=-<o o$***-$O+$**:**##=:,:::**$38887:O#$+#$2>3332",
">q858wO@#O+#72>*-+o.X++++oo.X++o++#.o+$$$+*.o#+8q663:oOo+o112<2,",
"-9789e=>:<1744,:oo*>,;::=-=:=::=<<2,=,32,23<<>:+832:2<****211<1=",
"*378qt#X.>ee0:-+ o+++o$X.#O+oo$o.*+#O+*o.=+++++.O,:<<7<..O253:,,",
"$73,>3$=:663<+o+*><>:,,::332=:,:<111<33<221<<<::=$==*-q2#=21*#<>",
"$453>7o#,,<-$. +O##o +o$+$$o.#o#+#$O.$o##$#O #X#ooo3:366:X:<#:<<",
"389q9q4,69$:+O=:1,,-:,,<,<<<:,:<<<2==::<<<,:->*::-=#662541-2<365",
"389575<,23oo.O*OO:####*#o*$=$$*+O=$$++$Oo*+#$#+oX$#+o373:*=>=:46",
"232>:<<<25 .O#$+o=+$$$-+O$#*$#$Oo-##++#+O*###$#+o*OOo#3:%*<><<31",
"<12:&->>3, $=:,,::=-:,<,:<><>-:-,2,:==*:,<:----:>:*$#$:==<<24342",
":,>--<2338$9w73632687w8587773783888627675733<232<,>:3-3-1<<45576",
"::=2323137=0752633569656775673532634636853<8323<:><37=1<:1408<75",
"-*=*$%<348$>--::3331=-43762:=*>3<3<:==<35>=,=*:>><3<:O<:-243<-1<",
"-**:$=;<67#>*,<<33<1=:377731>->631<1==<47=><:<322523*-:>-<11:323",
":==:==:>27#<126798>11189779896275253<<<336:6397786222:3431>47734",
"-==-*==-:>O;&<2321@>==1<>:3<23:1<<:-*---:1:<:<3<3>=:-*>:==156<36"
};
