/* XPM */
static char *result[] = {
/* columns rows colors chars-per-pixel */
"64 64 48 1 ",
"  c #010101",
". c #0E0E0E",
"X c #131313",
"o c #1B1B1B",
"O c #232323",
"+ c #2C2C2C",
"@ c #333333",
"# c #3B3B3B",
"$ c #444344",
"% c #484748",
"& c #4C4C4C",
"* c #504F50",
"= c #545454",
"- c #585658",
"; c #5B5B5B",
": c #646464",
"> c #686768",
", c #6B6B6B",
"< c #706E70",
"1 c #747374",
"2 c #797779",
"3 c #7C7B7C",
"4 c #807E80",
"5 c #848384",
"6 c #898789",
"7 c #8C8B8C",
"8 c #908F90",
"9 c #949394",
"0 c #999799",
"q c #9C9B9C",
"w c #A09EA0",
"e c #A4A2A4",
"r c #A8A6A8",
"t c #ACAAAC",
"y c #B1AFB1",
"u c #B5B3B5",
"i c #B8B6B8",
"p c #BDBBBD",
"a c #C0BEC0",
"s c #C4C2C4",
"d c #C9C7C9",
"f c #CCCACC",
"g c #D0CED0",
"h c #D5D3D5",
"j c #D9D7D9",
"k c #DCDADC",
"l c #E0DEE0",
"z c white",
/* pixels */
";;;---;;;;--;;;-==;=;**&**&*=&&%%$%%$$$#$$$$%%&&&&=&&&==;;==;;;=",
";--&oooXooooXXooooXooooXooooXXOoooXXooOXoooooXooooXooooXXooO%;;;",
"-=&o&>+XX@1%XXO11oXX:7@XX$q;XXO75oX.1q#.X$q;XXO53ooX,7+XX$5=o&=;",
"-&oo##+.X@$#XX+%*O.o%*#XX$;=XX+;;O.O=;#.X%==XX+==O.o&&#XX#&%XX&=",
"-@#@XX+$$oXo$%@.X#*%X.+==OXO==#.X$;*X.+;;OXo=;@XX$=&XX+==O.o$&@;",
"-@>$XXo::oXX;2+X.$7=.XO75oXX,q@XX$q:.XO95oXX,9@XX$7;XXO51ooX:5+=",
";+O+oo++++XO++@oo@O#OX@@#@X+###oo#+#OX#+@@X+@+#oo#O#oX@+@@o+@+@;",
";ooX%-+.X#:%XXO,,oXX:3#..$5;XXO31oXX,5#.X%5;XXO11oXX:3@XX$3=..O:",
";oXX$-+XX#:&X.O<>oXo;2#..$4-XXO21oXX:3#X.$5;XXO1,oXX:1@..$1;X.O:",
";+O@oX+++OXO@+#Xo@+#Oo@@#@X+#@#XO#+$OX@@#@X+@@#oO#+$OX@@@@X+#@@;",
";@:$XXo::XXX;3+X.$7=.XO84oXX,0#XX$0;.XO97oXX19+X.$q;.XO31XXX:5@=",
"-@##XX+#$OXo$%#XX#&&X.+=;OXo*=#.X$=&X.@;;O.o==#XX$&&XX@&=OXo$=#;",
";oXo#$@XX@$$XXO*=O.o=;#..$;=X.+;;O.o=:$..$;=XX+;;O.o&;@..$&$Xo@;",
";XXX=,+Xo#2*.XO31ooX,0@XX$q:XXO85oXX,q@.X$q:.XO85oXX:7@XX#5=XXO;",
";OXO+O+oO#+@OX@+@+o+@+#oO#+#OX#+@@X+#@#oO#+#OX@@@+X+@+@oO@O@Oo@=",
"-@-$XXO;;ooo*,@..#3=XXO11oXX#+XXXX@@..O31oXX:5@XX$3=XXO,:oXX=:@=",
"-@;#XXO=;ooo=>@.X$1;X.O1:XO=5eisday8;+o:1oXX:1#.X$1=XXO::oXX=:@;",
"-OXO++@Xo@O#OX@+@+XO#@@X+5sdsddggjjlkd5@X#@#OX@@#+XO@+@oo@+@oo@=",
"-XXX=,+XX#1&ooO32oXX,,o,iddppssdggjkhfda1o,;.XO53XoX:5+XX$5&XXo;",
"-OXo##@.X##$oX+%&OXo++9uipsssddfgjkkgsapy9+@XX+&&OXo%%@XX#$#XX+=",
"=@$#XXO$$O.o%=#oX#=+@qrruisdpssdghjjfsptqw0@@=@.X$=%XX+%&OXo$%@=",
"=@,$XXo::oXX:7#oX$:+qwqetipspassfhhhdpiw0997+:@XX$7=XXO3,oXX=1+=",
"&+O+OX+O+OoO@O#oo@o5wwqwerupaassghhfpirq97573O@Xo@O@OX@O++XO+O@&",
"&oXX&:+X.#1=.XO,>o:eqqqwqwui9*O.X+;0itq085555;o1,oXX;3@XX#,%XXO&",
"&oXX&;+XX#,&XXO,;+rrwqq00q5@o#,df,@O#507555555@;:oXX;1+XX#,&XXO&",
"*@O@oo++@+XO@+@oo<trrrq003oOo;zzzz-oXo16535557;oO@@#oX@@@+XO@+@&",
"&@,$XXO,:XXX;4@XOrtrreew2o. .7zzzz0+O.o,5568775Oo$7=XXO31XXX;3+=",
"*@##XXO#$OXo$&@X&yttreew@.   #eiy0=$>O.+3657797$o#%$XX+$%OXo$$@&",
"&oXo#$@.X@&$X.O+1rrreee3.    .%44:O+1, X:557755;@OXo&=@XX#&$XX+%",
"&oXX&,+XX#1=XXOo6rwwwqq%.     +:,*XX%:X.$7657551ooXX:7@XX#5=XXO%",
"$+XO+O+oo+O@Oo@X7999797O      o$$@. o#X O3535355X@X+@O@Xo@O@oo@$",
"%@;$XXO;;oXX=<@X8666641o      XO+o. .oX o1313135X$1=XXO,:oXX;1+$",
"$@=$XXO--oXX=,@X7546321X   ...XooXX XXX.o>1<<<26X#<*XXO::o.X-:+%",
"$OXO++@Xo@+@oX+X466631,o.....XXXooXXXoX.+3443244X+.+@@@Xo@+#oX+%",
"$ooX*1+X.#3&XXoo1755532#X.XXXXXXXXoXXXXX%8978884Ooo.:6@XX#5&XXO$",
"$+Xo##@XX#$$XX++;766652;o.XXoXoXXXXooXXo2w0q080>+O.o%%@.X#$$X.+$",
"$#$$XXO%%OXX%&#X$876521>O.XoooXXXXXXXXX#qwqw0qq%X$=&X.+*-o.o&*@$",
"##1$XXO,>XXX;2+XO66411,,;o..XXXXXoXXXXo2qwqwqq9O.$7=XXO1<oXX;3+$",
"$+O+OX+O++oO+O@oo;4421113:oXXXXXXXX.Xo1699eq00,oO@O#Oo@+++X++O@#",
"#oXX&:@X.#,&.XO,;+443134461@X..XXX.X@1687890qq+:,oXX-,@..$1*XXO$",
"$oXX&;@XX#;%XXO::o*4446677qe7=O.XO*7eq878769q:o,,oXX-:@XX#,&Xo+$",
"$@O@oX++@OXO@+@Xo@o<77677qrtiaapiiupie0988775o#Xo#+#oX++#+XO@@#$",
"$#<$XXo<:XXX;3@X.$>+6877qryudddappipaye09775O>@XX$7=XXO2,XXX;3+$",
"$@##XX+#$O.o$#@XX#$++698eyuaffaaaapssiyw095++&#.X$%%XX+$$OXo$$@%",
"$o.o$%@XX#%&XX+**O.o@O4tyyuagfdsssaaspiye3O@XX+-=O.o&*@XX#*$X.+$",
"%oXX&<+X.#3=.Xo1,oX.::o>yuadffddsaaasspy:o,;XXO31oXX;3+XX#2&XXO%",
"&+X++O@XO@O@Oo@O++o+++@o+1ufgfdddssasi3+X@O#Oo@++@oO+O@oO@O@Oo+&",
"&@;$.XO:;oXX*,@XX#1*XXO<:oO=5eudsuw3*Oo>2oXX:3#.X$1=.XO,:XXX;,+&",
"&@=$XXO-=oXX&;@X.#,=.X+::O.X++XXXX++.X+,>O.X;1@..$,&.XO:;oXX=:@&",
"*OXO@++Xo@+@oo@+@+.O@@@Xo#@#OX@@#+XO#@#Xo#@$Oo@@#+XO@@#Xo@+#oX@*",
"&XXX*,+XX@1$Xo+1,ooX:7@XX$8;XXO75XXX,0@X.%0;.XO61ooX:5@X.$4&.Xo*",
"*OXo@#+XX@#@XX+&%O.o$$@.X#$$X.+&=O.o%&#.X$%&o.+&&O.o%$@.X#$#XX+*",
"*@$#XXO$$oXo$&@Xo#&%XX+*;OXo&;@XX$;&X.+;;O.o=;@.X$=&X.+**oXo%%+*",
"&@:$XXO;;oXX&,+XX$1*XXo1,XX.:7@X.$9;XXO73oXX,7@X.$7=XXO1,oXX;1+*",
"*+o+oo+O++XOOO+oo@+@Oo@+@@X++O@oO#O#Oo@+@+X@@O#oO@O@Oo@O++oO+O@*",
"=oXX$=OXX@;$XXO;=ooX=:+X.#1=.XO1,oXX:4@X.$4;XXO1<oXX:1+.X#,$XXO*",
"-oXX#&+XX@&#XXO=*oXo=;+..#:&XX+::OXX;,#XX$<=XX+,:OXX=:@.X#;$XXO=",
"-+O+oX+++OXO+++Xo++#Oo++@+XO#+@XX#+$OX+@#+XO#@@oO#@#oX+@@OXO@++;",
"-@:$XXo;;oXX&:+XX@>%XXO,:XXX;5+XX#7=XXO53XXX:7@XX$5&XXO1,XXX=1O;",
"=@@@XXO@@oXo@#+Xo+@#oX+#$OXo$$@XX#$$XX+$&OXo$$@.X#&$XX+#$OXo##@=",
"-&oo@#+XX@$@XXO##oXX$$+XX#$$XXO*%O.o%*@XX#=&X.+&=O.O&&+.X#&#Xo&;",
"--&o$=OXX+:#XXo;&XoX%;+XX@,$XXO,>oXX;3+.X#3&.XO1:oXX=1+XX@,$X&;=",
"--=&oXXXXoXoXXoXooXXoXoXXooooXooooXooXoXXooooXoXooXooooXXooO&==;",
";;---;;:;;;;;;;;==;;==****&&&&&&$$$$$$$$$$$$$$&&&=&&*&===;=;==;;"
};
