/* XPM */
static char *result[] = {
/* columns rows colors chars-per-pixel */
"64 64 120 2 ",
"   c #0F0F0F",
".  c #131313",
"X  c #141B1C",
"o  c #1B1B1B",
"O  c #131F21",
"+  c #152323",
"@  c #1C2120",
"#  c #162528",
"$  c #17282C",
"%  c #182A2F",
"&  c #1A352D",
"*  c #1A2E32",
"=  c #1B3236",
"-  c #1F3B33",
";  c #1D353A",
":  c #232323",
">  c #2C2C2C",
",  c #333333",
"<  c #3B3B3B",
"1  c #1D4238",
"2  c #203B40",
"3  c #214646",
"4  c #24454B",
"5  c #224848",
"6  c #274B52",
"7  c #284C53",
"8  c #2D575F",
"9  c #2C695E",
"0  c #2D5760",
"q  c #2D6C63",
"w  c #2F6A68",
"e  c #326F6E",
"r  c #2F7067",
"t  c #2F7369",
"y  c #307167",
"u  c #307168",
"i  c #366B76",
"p  c #376F79",
"a  c #39737E",
"s  c #377D7B",
"d  c #444344",
"f  c #484748",
"g  c #4C4C4C",
"h  c #504F50",
"j  c #545454",
"k  c #585658",
"l  c #5B5B5B",
"z  c #646464",
"x  c #686768",
"c  c #6B6B6B",
"v  c #706E70",
"b  c #747374",
"n  c #797779",
"m  c #7C7B7C",
"M  c #39807E",
"N  c #3D7985",
"B  c #3E7D8A",
"V  c #807E80",
"C  c #3C8486",
"Z  c #388C84",
"A  c #3E8B8B",
"S  c #40818E",
"D  c #428592",
"F  c #468E9D",
"G  c #47909F",
"H  c #4A95A5",
"J  c #4D9DAD",
"K  c #4EA0AE",
"L  c #4FA1B2",
"P  c #50A3B5",
"I  c #53A9BA",
"U  c #55AFC1",
"Y  c #57B3C5",
"T  c #5AB9CC",
"R  c #5CBED1",
"E  c #55A1FF",
"W  c #5AAEFF",
"Q  c #5CB2FF",
"!  c #72ADFF",
"~  c #76B1FF",
"^  c #5EC2D6",
"/  c #5CC6D9",
"(  c #59C8DB",
")  c #61C9DE",
"_  c #63CDE2",
"`  c #66D3E9",
"'  c #68D8EE",
"]  c #66CCFF",
"[  c #68D7F6",
"{  c #6ADCF5",
"}  c #67D0FB",
"|  c #6FE1FF",
" . c #71E6FF",
".. c #71EAFF",
"X. c #73F0FF",
"o. c #79FAFF",
"O. c #848384",
"+. c #898789",
"@. c #8C8B8C",
"#. c #908F90",
"$. c #949394",
"%. c #999799",
"&. c #9C9B9C",
"*. c #A09EA0",
"=. c #A4A2A4",
"-. c #A8A6A8",
";. c #ACAAAC",
":. c #B1AFB1",
">. c #B5B3B5",
",. c #B8B6B8",
"<. c #BDBBBD",
"1. c #C0BEC0",
"2. c #C4C2C4",
"3. c #C9C7C9",
"4. c #CDCBCD",
"5. c #D0CED0",
"6. c #D5D3D5",
"7. c #D9D7D9",
"8. c #DCDADC",
"9. c #E0DEE0",
/* pixels */
"l l l k k k l z l l k k l l l k j j l j j j j g h h h h j h g g f d d d d d d d d d d d d g g g g h h h h g h j j l j j j j l l ",
"l k k g @ . o . . o o o . . o o o o . o o o o . . @ o @ . . o o o o . o o o o . . @ o @ . . o o o o . o o o @ . o o o : g l l l ",
"k j g o g x > . . , b f . . @ n b o . . z @., . . f %.l . . : #.+.o . . b &.<   . d *.l . . : @.m o . . z @., .   d O.j o g j l ",
"k g o o < < >   . , d < . . > f h :   o g h <   . d j j .   > j l :   o j l <   . f j h .   > j j :   o g g < . . d g d . . h j ",
"k , < , . . > d d @ . o d f ,   . < h g .   > j j : . @ j l <     f l h .   > l l >   o h l <   . d h g . . > j j :   o f g , k ",
"k , x d . . o z z o . . l n > . . < +.j . . : @.V o . o v %.< .   d &.z   . : $.O.o . . c $., . . d $.j   . : O.n o o . z V > k ",
"l > : > o o > > > > . : , : , o @ , > < : . , > < , . > < , < . @ < > < : . < > , , . > < > < o @ < : < @ . , > , , o > , > , l ",
"l o . o f k >     < z f   . : v x o . . l m <     d V l . . > m b o . . x O.<   . d O.l   . : b b o . . z m , .   d m j . . : l ",
"z o . . f k > . . < z g . . : c z @ . . z n < . . d V l     > b b @ . . x m < .   d m l     > b c o . . z b , .   d m j . . : z ",
"l > : > o . > > > : . : , > , o o < > < : . , , < > . > < , < o @ < > d @ . , , < , . > < , < . o < > d o o , > < > . > < > , l ",
"k , z d . . @ x z . . . l V , .   < @.l   . : @.O.o . . c &., . . d %.l . . @ $.+.o o . v %., . . f &.l . . : O.b o . . z O., l ",
"k , < < . . : < d : . o d f ,   . < g g . . > j k :   o h j <   . d j g .   , l l :   o j h <   . d g g . . > g g :   o f j < j ",
"l o . o d d > . . , f d .   > g j :   o h l <     d l j .   , l l :   o j l < . . d l j . . > l l @ . o g j <     d g d . o , l ",
"l . . . h c > . o < n j . . : n b o . . c %., .   f &.z   . : @.O.o . . v &., .   d *.l . . : @.V o . . x @.> .   d O.g . . @ l ",
"l : . : > : > o : , > , : . , > , > . > , > < o @ < > < : X , , , , o > < > < o @ < > d : o , , , , . > , > , o o , : < o o , j ",
"k , k d . . : l l : o . h c ,     d m j . . : n b @ . . , , . . . . , , .   : m b o . . z V , . . d m j . . : c c o . . k z , k ",
"k , k d   . : l l o . o j x ,     d b j .   : b z . : j O.=.>.2.3.1.;.#.l > o z v o . o z n ,   . d b j . . > x z o . . j z , l ",
"k : . : > : , . o , > < : . , > , > . > < , < . > O.1.3.2.3.3.4.5.7.8.9.8.3.O., o , , < : o , , , > . > , > , . o , > , o o > j ",
"k o . . h c : . . < b g o o @ m m o . . c x o c <.3.3.<.<.2.2.4.4.6.8.8.6.4.3.1.v o c l   . : O.m o . . z O.> . . d m f . . @ l ",
"k @ . o < < , . . < < d o . > g g :   o > > $.:.>.1.2.2.2.3.3.4.6.7.8.8.6.1.1.<.>.@.> , .   > g g @ . o f g ,   . < f d . . > j ",
"j , d < . . : f d @   o f h d o   d j > , &.-.=.>.<.2.3.1.2.2.4.4.6.8.8.4.2.,.;.*.*.%., , k ,   . d h g .   > g g : . o d g > j ",
"h , c f . . @ z z . . . l @.< o . < x > &.=.&.=.;.>.<.1.<.1.2.2.3.6.6.6.3.1.,.=.%.$.#.@.> z , .   d @.j . . @ m c o . . j b > j ",
"h > : > @ o > : > > . > , > < o o , o O.*.*.&.=.=.-.>.<.<.1.2.2.3.7.6.3.1.>.=.&.%.+.O.#.m o , o o , : , @ o , : > > . : > : , g ",
"g o . . g l > .   < b j   . : c c o z =.&.&.&.&.&.=.:.<.$.g @   . > l &.,.;.&.%.#.O.O.O.O.l o v c o . o z b ,   . < c g . . : g ",
"h o . . g l > .   < c g .   : x l > -.-.*.*.&.%.&.&.+., - Z ( } ' ) S 1 < O.%.@.+.V V O.O.+.> l z o . . l v ,   . d x g . . : g ",
"h > : , @ o > > , > . : < > < . o c -.;.-.=.&.$.$.m o y L [ W ~ ~ Q ' P y o b O.O.m O.O.O.+.z o o < > d @ . , , , : . : , > , g ",
"h , c f . . o c x . o   l V , . > =.;.-.-.=.=.*.m o y e D  .E ~ ! E ..) Y u o c O.O.@.@.#.#.V : o d O.j . . @ m b o . . l m > h ",
"g , < < . . : d d :   o d f , . g :.;.;.-.=.=.*., 5 4 4 a _ | ] } | ' ' ..T 5 > m O.+.@.#.#.+.d o d f d o   > f f :   o d d , h ",
"g :   o < d ,     < f d . . > > b -.=.-.=.=.=.m @ ; + 2 0 G { o.o...Y ) .. .D X z +.+.+.@.@.@.l , o . o g j ,   . < g d o   > g ",
"g . o . g c >   . , n g . . : o +.=.=.=.&.*.&.g # X O % 4 N ` o.o...U K {  .I = < @.+.O.O.m O.b o o . . z @., .   d O.h   . : f ",
"d : . : > : , o o , : , : . , . @.$.$.#.#.#.@.: % X # * ; a R ..X.{ P S Y _ U 6 : V O.m O.V O.V . > o > , : , o o , : , o o , d ",
"f , l f   . : l l o . . j v , . #.+.+.+.O.O.b o 6 5 6 7 0 B I _ _ T J S H Y I p o b n b m n m O.. d m g   . : x z o . . l b > d ",
"f , k d .   : l k o . . j x , . #.V V V m n v . a a s S C F P Y Y I K F J P P D . v n v v v m +.. < v h . . : l z o . . k z > f ",
"d : . : , > , . o , > , o . > . V @.#.+.m b v : s F H G H K P I I I P P P P P C > m V m V n V V . > . > , , , o o , > , o . > f ",
"d o . . h v > . . < n g . . : o b @.V +.V m n < 9 J K K K P P P I P P P P P J y f #.#.@.#.#.#.V o o . . z +.> . . d V g . . : d ",
"d > . o < < , . . , d d . . > > z +.+.+.+.V n k & H P P P P P P P P P P P P J - n *.&.%.#.$.$.x > :   o f g ,   . < d d .   > d ",
"d < d d . . : f g o . o f g ,   d #.@.V O.m v x > 9 J P P P P P P P P P P K y < &.*.*.*.%.&.&.f o d j g .   > h h :   o g h , d ",
"< < v d . . : c x o . . l n , . : V @.V n b c v l o s J K K P P P P P L J M @ n *.*.&.*.&.%.$.:   d @.j   . : b c o . . l m > 4 ",
"d > : > @ . > : > > . > > : , o o z V V n v v v m z o y K K K K L L K J u o v +.#.$.*.&.%.&.c o o , : < : o , > > > . > > : , d ",
"d o . . g z , .   < c f   . : c k > V V n n m V V +.b , & 9 D K K A q & , b +.#.@.#.$.%.&.&., z v o . . l v > .   d b h . . : d ",
"d o . . f l ,   . < l f     : z z o h V V V V V +.+.&.-.@.h :     : h @.-.&.#.@.#.@.@.$.&.z o c c o . . k x ,   . < x g . o > d ",
"d > > , @ . > > , : . : , > , . o , o n @.#.@.#.@.&.;.;.,.2.1.,.,.,.>.<.>.=.%.#.#.@.@.@.V o < . o < > < o . > > , > . : , , < d ",
"d < v d . . : c z o . . l m , . . < x : V $.@.@.&.;.:.,.2.4.2.1.<.<.,.<.1.>.=.%.#.#.#.O.> z , . . d @.j . . : m v . . . l V > f ",
"d , < < .   > < < : . o d d ,   . < f > , V $.%.=.;.>.<.4.3.2.2.2.1.<.2.2.,.;.*.%.#.O.> > f <   . d f f . . > f f : . o d d , d ",
"f o   o d f ,   . < f g . . : h g :   o , > V *.:.:.,.2.5.4.3.2.2.2.2.<.2.<.>.>.*.V : , .   > k j :   o g h ,   . < h f .   > f ",
"f o . . g v > .   < V h . . : b c o . . z z o c ;.,.1.2.5.3.3.3.2.<.<.1.2.2.<.>.x o c l . . : m n . . . l m > .   < m f   . : f ",
"f > . > > : , o : , : , : . > > > > . > , : , o > m ,.4.4.4.3.3.2.3.2.1.2.,.m > . , : < : o , > , > . > > : , o : , : , : o > f ",
"g , l d   . @ z l o . . h c , . . < n h   . : n z . : j O.=.>.2.2.>.*.m h : o x n o . . z V , .   d n j   . : c l o . . l c > h ",
"g , j d   . : l j o   . g l , .   < x g . . : x z o . . , > . . . . > >   . > c c o . . l b , .   d c g . . : l l o . o j z > g ",
"h :   : , > , . o , > , o o , , , > . : , , < . o < , d @ . , , < > . : < , < . o < , d o . , , < > . : , , , o o , > , o . , h ",
"g o . . h x > .   , b f . o : n c o o . z O., . . d @.l . . @ @.O.o . . c $., . . d %.l . o @ +.m . . . z O.> . . d m g . . @ g ",
"g : . o , < > . . , < , . . > f g @   o d d , . . < f d . . > g g :   o g g <   . d g g .   > g g : . @ d d <   . < d d . . > h ",
"h , d < .   : d f o . o d g , . o < g g . . > h j :   o g j <   . d l g .   > l l :   o h l <   . d l f .   > h j o   o f g > h ",
"g , z d . . : l l o . . h c > . . d b g . . o b c . . . z @., .   d $.l . . : @.m o . . c @., .   d @.j . . : b c o . . j b > g ",
"h > o > : . > : : > . : : : > o o , : , @ o , : > > . > > : , o : , : < : o , > > , . > , : < o : , : , : . , : > > o : > : , h ",
"j o . . d j >   . , l d . . : l l o o . j c > . . d m h . . : b b o . . z V ,   . d O.l . . : b c o . . z b ,   . < c f . . : j ",
"j o . . < h > . . , g < . . : h g o . o h l ,     < z g   . : z z @ . . l c <     d b j .   > c x o . . h z , .   < l d . . : j ",
"j , : > o . : > , : . : , > , . o , > < : o > , , > . : < , < . o < , < @ . , , < >   : < , , o o d , < o . > > , : . : , > > l ",
"l , z d . . @ l j . . . g c > . . , c d . . o c z . . . l m , .   d +.j . . @ O.m o o . x @., . . d @.g . . : b c . o . j b : l ",
"j , , , . . : > , : . o , , >   . , , < o . > < d : . o d d , . . < d d . . > d g :   o d d ,   o < f d . . > < d @   o < < , j ",
"j g o . < < > . . , d < . . : < < o . o d d > . . < d d .   > g g @ . o g g , . . < h f .   : g h o . o f g > . . , f d . o g k ",
"l k g o d j : . . , l < . . : j g . . . g l > . . , c d . . o v x o . . l m > . . < m h   o : b x o o o l v > . . < c d o f k k ",
"l k k g o . o . . o . o . . . o o o . . . . o . . o o o o . o o o o . . . . o . . o . o o . o o o o . o o o o . . o . : g k k l ",
"l l k k j l l l l l j l l l l l j j l l l j h h h g h g g g g g d d g d d d d d d d f f d d f g g g g g g h j j k k k k j k l k "
};
