/* XPM */
static char *result[] = {
/* columns rows colors chars-per-pixel */
"64 64 50 1 ",
"  c #040404",
". c #0E0E0E",
"X c #131313",
"o c #1B1B1B",
"O c #232323",
"+ c #282728",
"@ c #2C2C2C",
"# c #333333",
"$ c #383738",
"% c #3B3B3B",
"& c #403F40",
"* c #444344",
"= c #484748",
"- c #4C4C4C",
"; c #504F50",
": c #545454",
"> c #585658",
", c #5B5B5B",
"< c #605E60",
"1 c #646464",
"2 c #686668",
"3 c #6C6B6C",
"4 c #716F71",
"5 c #747374",
"6 c #797779",
"7 c #7C7B7C",
"8 c #817F81",
"9 c #848384",
"0 c #888688",
"q c #8C8B8C",
"w c #908E90",
"e c #949294",
"r c #999799",
"t c #9C9A9C",
"y c #A09FA0",
"u c #A5A3A5",
"i c #A8A6A8",
"p c #ACAAAC",
"a c #B0AFB0",
"s c #B4B2B4",
"d c #B9B7B9",
"f c #BCBABC",
"g c #C1BFC1",
"h c #C5C3C5",
"j c #C8C6C8",
"k c #CDCBCD",
"l c #D0CED0",
"z c #D5D3D5",
"x c #D8D6D8",
"c c #DCDADC",
/* pixels */
",,,>,,,,,,,,,,,>::,:,::-;-:-----=*****%******==--:-:--:::,::,,,,",
",>>-oooXXoXoXXooooXooooXooooXXOoooXoooOXoooooXooooXXoooXXooO-::,",
">:-o-2+XX$4=XXo65oXX10#X.=t,XXOw0oXX5t$XX*t,.XOq7oXX3q@XX%q:X-:,",
">-oo%%@XX$*%X.@--OXo--%.X*,:XX@:,O.o:,%.X-::X.@,:OXo--%XX*-*XX::",
">#%#XXO**oXo**#XX%--X.@::OXO::%X.=,:X.@,,@.o:,%.X*:-XX@::O.o--#,",
">#2&XXO21oXX,7@XX*9:XXO09ooX3t#.X=t,XXOw9oXX3e#X.*w:.XO95ooX17@:",
",@O#oX@+@@X+@+#oo#@%OX##$@X@&#%oo%@%OX####X@#@%oO%@%Oo#@##o@#@#1",
"<oXX=>@XX%1=XXO31oXX<7$..=9,XX@75oXX39$XX*9,XXO53oXX15#XX*7:.XO,",
",oXX=:@XX%<-XXO33oXo,6%XX*9,X.+55oXX17%..=7,..@53oXX15#X.*5,XX@,",
",@O#oX@@@OXO#@#oo$@%OX##$@X+%#%oO%@&OX%#%#X@%#%Xo%#%OX#@%@.@%@#,",
",#1*XXo31oXX,8@XX%q:XXOq0XXX3r$X.*t,.XOeqoXX3t#XX*t,XXO95XXo19@,",
",#$%XXO%&OXo*=#XX%--XX@:,+.o;>O>:@:-X.#,:O.o::%.X*--XX@-:O.o=:%,",
",oXo&*#XX#=*XX+-:O.o;,%.X*,:X qkk7.o:,%XX*,:X.@,,O.o-:%.X*-*XX#,",
",XXX;3@Xo%6-XXO75oXX3r#X.*y:$allkjy@1t#XX*t1.XOw9oXX1q#XX%9-.oO,",
",OXO@O@oO$+#Oo#+#@o@$@$oO%X4kczlljks:o%XO%@&Oo#@#@o@#@#oo#@#OX@,",
":#,*XXO,,Ooo-3#.X%7:.X+65Xtxcxzlljkkhq.75oXX37%.X*7:XXO33oXX:3@,",
":#,&XXO,,oXo:1#XX%5,XX@:&axccxlllhggghp%,OXX17$XX*5:X.@11oXX:1#,",
",OXO@O#Xo#@%Oo@@$@XO$@X3sjlzxzlkjghggghs,o@%OX#@#@X@%@#Xo#@#oo#:",
",XXX-3@XX%5-XoO77oXX1O9sggjlxzzkhhhgggfds9O,.XO95ooX19@XX*9-XXo,",
":OXo%%#.X$&&oo@=-OXX%qyiddgkzxzkhhggggfapuq$.X@-:O.o=*%.X%*%X.@:",
":#*%XX@**O.o-:*oX&o:wtttpdfjllkgggdfggfsutyt1o$.X%:=X.@--O.o*-@:",
":#3=XXo<1oXX,0%o.O39qqetyadgklljggddfsaiytrtt8OXX*9:.XO53oXX,5@:",
"-@O@OX@O@OXO#@#.&59800qeryadjlljfddffairttrrtye-X#O%Oo#@@@X@@O@:",
"-oXX-<@XX%5:.X.19q989q90wruadhjgssddsiteeeettupu5.XX15#.X%3=XXO-",
"-oXX-,@XX%3-.@7weq9999970wqyagjgddfdpteewwtyuuuppe@.,3#X.%3-XXO:",
";#O#oo@@#@XO%0eweq0q9766869eiaddssfsyrwqqwtuuuippau-oo@#%@XO@@#-",
"-#3=XXO31XXX&wwww99975553479wyaappattw9wtttyuuuippi*XoO73XXX,7@:",
"-#%%XXO%*O.oX5ww00w0877314448wiapsirw0wttttyiuuuiiqXXX@*-OXo**#-",
"-oXo%*#.X$-*.,9099wq0885412139tiuirwqrteetetyyytuu5X-:#XX%-*XX@-",
"-oXX-3@XX$5-X$9999988885541,<2qyurwwew0qqeeeeetete%X19@XX%9:XXO=",
"=@XO@O@oo@O$O.59789665555431<<4wtw00899799977qqqw7.@#@#Xo#O#oo@=",
"*#,*XXO,,oXX:*,755755353111,,,;485<3131311355799q,::XXO31oXX,5@*",
"=#:*XXO,:oXo:3#337533333111113,53--,<,,,<<<336678$4;.XO<1oXX,1@*",
"=OXO@@@Xo#@#oXX3778555677755775qq<:,,1<1<<2436786XX+$#$Xo#+%oX@*",
"*XXX:5@XX$7-XXX39qw9q00099qq959er93,:<1324444488<.XX10@XX&8;XXO*",
"*@Xo%&#XX#%*XX@*wetwewewweq977etyt83<<<124667788%+.o==$XX%*&XX@*",
"*%*&XXO=-O.o*-#owtytttettq979wyyuuq741<,23447807.&:-X.+;;OXo-;#&",
"*$3=XXO33XXX,7@.8yyutttew9999yiyuiuw8431<2234792.&q:.XO63XXX,7@*",
"*@O@OX@O@@X@@O#X:ytuttrwq999euiiipirq7443<23446$O#O$Oo#+#@X@@+#&",
"*oXX-1#X.$3-XXO3+eyyteq999qetpippssye9854444443o4oXX,4#.X&5;XXO&",
"*oXX-,@XX$,=XXO1#8yrrq00q9qysapppssiyr97777445>%3oXX,1#..&2-Xo@*",
"=@@#oX@@#OXO#@#Xo:tw0wq0qwuisaasssssiue9998775#oo$#%oX@##@X+##$*",
"*$3=XXO31oXX,7#X.+0qqwwqqtpsdssssdffsuue099985oXX*0:XXO63XXX<8#*",
"=#%%XX@%%OXo&*#XXo5wwwqrtiafdsdddfghdiuuqqw9q3oXX&==XX@*=OXo*%#=",
"*OXo%-@X.$--o.+--o-wrweriasgdsddffhhssiptw0q0*+>:O.o-;#.X%-*X.@=",
"*XXX-5@XX$8;.XO53o+9rwtuasgfddfffhjjhdspitww8oO85oXX,7@XX%7=.XO=",
"-@X@@O@oO#O#Oo@@#@.7rtypsfjfdfgghhjjjfsaapew5.$@@@X@@O#oO#O#Oo#=",
"-#1%XXO1,o.o-2#XX%1;tupsdjjjfjgjjjjkzjgdsaut;6#.X=5:.XO3<oXo:3@-",
"-$:%XXO,:oXX-,#XX%3@57q9qeeewewqqqetttwq9797@5#XX*3-XX@1,oXX:1@-",
"-OXO@@@oo#@@oo#@#@XoOOO.XOo@X.OO@O.o@OO.X@O@oX##%@XO#@#Xo#@#OX@:",
"-XoX-3@XX#5-Xo@53ooo19#XX*w,XXo07oXX3e#X.*t,.XO97XXX19@XX%7-XXO-",
"-OXo$$@XX##$XX@-*O.o**#XX%*-oX@--O.o--%.X*--X.@--O.O==$XX%**X.@:",
"-#*%XXO=-oXX*-#Xo%-*XX@-:oXo-:%XX*,:X.@,,O.o:,#.X%:-XX@-:OXX*-@-",
"-#1*XXO,,oXX-3@XX*5-XXo53oXX1q#X.*w,..Oq7oXX3q#XX=0:XXO53XXX,5@:",
":@o@Oo@OO@X@OO@oo#O#Oo#O@#o@@O#oO#O%@o%@@#o@#O%oO$O#Oo#O@@X@@O@:",
":oXX%:OXX#,*XXO,,ooo:1@XX%5-XX@35oXX17#.X%9,XXO53oXX,5@XX%5*.XO:",
":XXX&-@.X#-&XXO::oXo:,#XX%1-XX@11oXX,5#XX*5:XX@31OXX:1@X.%1*..O:",
",@@@XX@@@OXO@@@Xo@@#Oo@@#@XO%##Xo%#%oX##%@.O%#%XO%#$oo@@#@XO#@@,",
":#1&XXo,,XXX-3@XX#3*XXO31XXX,7@XX%q:XXO97XoX1q@XX*9-XXO51XX.:5@:",
":##%XX@@#OXo##@XX##%oX@%%OXo**#XX%**XX@*-O.o*=#XX%-*XX@%*O.O%%#:",
",-oX#&@XX#&%XXO&%o.o%*@XX#-*X.@--oXX-:#XX%--XX@-:O.O=-@XX$-%Xo-,",
",:-o=:OXX@1&XXO::XXX-1OXX%3*XXO33oXX,5@XX%8-.XO51oXX,5@XX$3*X-,:",
",:,-oXXXXoXXXXXXXoXXoXoXooooXXooooXooooXooooXXoXooXooooXXoXO-,:,",
",,:,:,,1,,,,,,,,,:,,:::-----:---******%*%****----:----:::,,:::,,"
};
