/* XPM */
static char *result[] = {
/* columns rows colors chars-per-pixel */
"64 64 215 2 ",
"   c #0E0E0E",
".  c #040404",
"X  c #131313",
"o  c #1B1B1B",
"O  c #232323",
"+  c #2C2C2C",
"@  c #282728",
"#  c #333333",
"$  c #3B3B3B",
"%  c #383738",
"&  c #1C2574",
"*  c #2A3A6A",
"=  c #091A72",
"-  c #403F40",
";  c #394A4E",
":  c #36436D",
">  c #2F466D",
",  c #3B717A",
"<  c #3F6361",
"1  c #444344",
"2  c #4C4C4C",
"3  c #484748",
"4  c #504F50",
"5  c #545454",
"6  c #585658",
"7  c #5B5B5B",
"8  c #50525D",
"9  c #495550",
"0  c #496054",
"q  c #4C566A",
"w  c #505A6B",
"e  c #615F61",
"r  c #576669",
"t  c #476569",
"y  c #646464",
"u  c #6C6B6C",
"i  c #67686B",
"p  c #706E70",
"a  c #747474",
"s  c #787678",
"d  c #7C7B7C",
"f  c #658F6D",
"g  c #77C679",
"h  c #87D67B",
"j  c #000797",
"k  c #02118D",
"l  c #0C3095",
"z  c #0214AA",
"x  c #0A37A6",
"c  c #1831AE",
"v  c #094498",
"b  c #1D4F96",
"n  c #11578E",
"m  c #2B4D91",
"M  c #156E9D",
"N  c #32629E",
"B  c #1258AB",
"V  c #104DB6",
"C  c #125AB7",
"Z  c #0F4BAF",
"A  c #1567A8",
"S  c #1A73AB",
"D  c #166DBC",
"F  c #1E7DBB",
"G  c #1B78B4",
"H  c #3A79A9",
"J  c #0B36CA",
"K  c #092DCE",
"L  c #0D3BE0",
"P  c #213DFC",
"I  c #1359C7",
"U  c #1447DD",
"Y  c #155DD6",
"T  c #1867C7",
"R  c #1B70D2",
"E  c #2D74CF",
"W  c #264BFF",
"Q  c #2C54FF",
"!  c #2856FF",
"~  c #325CF0",
"^  c #1E7AE5",
"/  c #2E64FC",
"(  c #366AFD",
")  c #3A77FC",
"_  c #3573E6",
"`  c #407BF7",
"'  c #817F81",
"]  c #328599",
"[  c #3FA39B",
"{  c #2688AE",
"}  c #3298AC",
"|  c #2489B6",
" . c #2E94B3",
".. c #3195B7",
"X. c #2E95AE",
"o. c #3AA1B0",
"O. c #59A799",
"+. c #5FB19B",
"@. c #4890AC",
"#. c #56A8AB",
"$. c #59B8A7",
"%. c #58B8B5",
"&. c #4BB3AC",
"*. c #79B8A2",
"=. c #4B8D95",
"-. c #6DC493",
";. c #79D193",
":. c #5CC4B3",
">. c #68CABA",
",. c #6CD2B4",
"<. c #70D4AE",
"1. c #79E2B2",
"2. c #3B82C2",
"3. c #2E8FCF",
"4. c #38A0D9",
"5. c #2C88F8",
"6. c #3B89FF",
"7. c #3798EF",
"8. c #3DA4E6",
"9. c #499CD8",
"0. c #4F9EC9",
"q. c #4EA8CD",
"w. c #61BFC0",
"e. c #428AFD",
"r. c #4389FB",
"t. c #479AFA",
"y. c #4997E9",
"u. c #4FA3EA",
"i. c #56B5EF",
"p. c #4CA4FF",
"a. c #4AA7F9",
"s. c #52ADF7",
"d. c #54B3FF",
"f. c #58B9FA",
"g. c #4DB2EB",
"h. c #5BC8C4",
"j. c #69D6D7",
"k. c #66CECD",
"l. c #76E5DB",
"z. c #5AC1FC",
"x. c #5FCFF0",
"c. c #65CBFB",
"v. c #6CD8F7",
"b. c #72DEFC",
"n. c #66CCEF",
"m. c #7AE7E8",
"M. c #7DECFC",
"N. c #75E6FE",
"B. c #848384",
"V. c #898789",
"C. c #8C8B8C",
"Z. c #908F90",
"A. c #949394",
"S. c #989798",
"D. c #9C9A9C",
"F. c #A19FA1",
"G. c #A5A3A5",
"H. c #A8A7A8",
"J. c #ACAAAC",
"K. c #B0AFB0",
"L. c #B5B3B5",
"P. c #B9B7B9",
"I. c #BDBBBD",
"U. c #99EE8D",
"Y. c #B4FA93",
"T. c #81DFB8",
"R. c #82E7B7",
"E. c #96F7BA",
"W. c #8CF0B3",
"Q. c #A5FDB8",
"!. c #B5FFBE",
"~. c #B9FEB8",
"^. c #8BCE94",
"/. c #D2FF91",
"(. c #E6FF9B",
"). c #FCFF93",
"_. c #F6FF9A",
"`. c #EEFF89",
"'. c #D3FFAD",
"]. c #D8FFAA",
"[. c #C4FFB6",
"{. c #C9FFB5",
"}. c #C4FFBD",
"|. c #D4FFB5",
" X c #CAFFAF",
".X c #E5FFA3",
"XX c #E8FFA7",
"oX c #F2FFA0",
"OX c #C0BEC0",
"+X c #83EAC6",
"@X c #8DF5C6",
"#X c #99F9CB",
"$X c #86F5D8",
"%X c #9AFDD7",
"&X c #89E0DB",
"*X c #A6FFCC",
"=X c #ABFFC8",
"-X c #B4FFC3",
";X c #BBFFC7",
":X c #A6FFD6",
">X c #85F5E7",
",X c #97FFE9",
"<X c #86F7FB",
"1X c #98FFF8",
"2X c #80EEF5",
"3X c #A2FFE3",
"4X c #A8FFE1",
"5X c #C4C2C4",
"6X c #C8C6C8",
"7X c #CDCBCD",
"8X c #D0CED0",
"9X c #D5D3D5",
"0X c #D8D6D8",
"qX c #DCDADC",
"wX c #C7FFC2",
/* pixels */
"7 7 7 6 6 7 7 e 7 7 6 6 7 7 7 7 5 6 6 5 6 5 4 4 4 2 4 4 4 4 2 2 3 1 1 1 1 1 1 - - 1 3 3 1 3 3 9 4 4 4 4 4 4 4 5 6 6 5 6 6 6 6 7 ",
"7 6 6 2 o o o X X o o o X X o o o o X o o o o X X O o o X X o o o o X o o o O X o o o o X X o o o o X o o o o X o o o O 2 5 5 e ",
"6 5 2 o 2 i + X X # a 3 X X O a a o X X e C.# X X 1 S.e X X O Z.V.o X X a F.# X X 3 D.e   X O C.d o X X y C.+ X   - C.4 X 2 6 6 ",
"6 2 o o $ $ +   X % - $ X   + 3 4 @   o 2 4 $   X 1 6 5 X X + 5 6 @   o 5 7 $   X 3 5 9 X X + 5 5 O   o 2 4 $ X X - 2 3 X o 4 6 ",
"6 # $ % X X O 1 1 o X o 1 1 #   X - 4 3 X   + 5 5 O X O 5 6 $ X X 1 7 5 X   + 7 7 @   o 5 5 $   X 1 5 2 X   + 5 5 O   o 3 2 # 6 ",
"6 # y - X X O i y o X X 7 d # X   - V.5 X X O V.B.o X X p S.# X X 1 D.e   X O A.B.o o   u A.%     1 Z.6 X X O V.s o o X y ' + 6 ",
"7 + O # o X + @ + + X O # + # o o # + $ O X # # % # X + - # $ o o $ + $ O X % + # # o + % + $ o O $ + $ O X % + # # o + # + # 7 ",
"e o X X 3 6 + X   $ y 3     O u u o X X e f %     1 B.7 X X @ d a o X X u B.% X   1 B.7   X O a p o   X y f #   X 1 d 5   X O e ",
"e o X X 1 6 + X X $ y 2 X X O u y o X X y s $ X   1 ' 7     @ s f o X X y ' $     3 ' 7   X O a p o X X y a #     1 s 6 X X @ 7 ",
"7 + O # o X + + + + X O # + # o o % + - O X # # % # X @ $ # $ o o - # - O X % # $ + X + $ # $ o o $ + - O o # # % + X + $ + % 7 ",
"7 # y 1 X X O y y X X X 7 ' # X   - C.6 X X O Z.B.o X X p S.%     1 S.7 X X O A.V.o X X u S.# X X 3 D.7   X O d s o X X y B.# 6 ",
"6 # % $ X X O $ - O X o 1 3 #   X $ 2 2 X   + 5 6 O X o 4 5 O 7 6 + 5 2 X   + 7 6 @   o 5 5 $   X 1 4 2 X   + 9 2 O   o 3 4 - 6 ",
"7 o X o - 1 # X X # 1 1 X   + 2 5 O   o 4 6 -   X 1 7 5 X . V.7X7Xd . o 5 7 -   X 1 7 5 X X + 7 7 O   o 4 6 %   X - 2 1 X o # 7 ",
"7 X X X 4 u + X o $ s 9 X X O d s o X X u S.# X X 1 D.5 % L.8X8X7X5XF.+ y D.% X X 1 D.y X X O Z.' o X X y V.# X   1 B.4 X X O 7 ",
"7 O X O + O + o O % @ # O o # @ # + X + % + % o O $ X p 7XqX9X8X8X6X7XL.7 o $ o O $ + $ O X % + # # X + # + % o O # @ # o o + 7 ",
"6 # 6 1 X X O 7 7 O o o 2 u #   X - d 6   X @ f a X D.qXqX0X9X8X8X6X7X7X5XV.. d a o X X y ' % X   3 d 5 X X O u y o X X 6 y # 5 ",
"6 # 7 - X X O 7 7 o o o 5 u #   X - a 6 X   O 6 - K.9XqXqX0X8X8X7X5X5XOXOX6XH.$ 6 O X X e s % X   3 f 4 X X O y y o X o 4 y # 5 ",
"7 O X O + O # X o # O $ O X # + % + X @ $ # X u P.6X7X9X0X9X8X6X6X5X5XOXI.OX6XL.e X # - O X # # $ + X @ % + # o o # @ % o o # 5 ",
"6 X X X 9 u + X X $ s 2 o o o d s o X X u O B.L.I.OX6X8X0X9X5X& & K.5XI.OXOXI.I.L.' O 6 X X O ' d X X X y B.+ X X - B.2   o O 5 ",
"5 O X o $ $ #   X % - - o X + 2 4 O   X $ C.F.H.P.P.5X7X9XA.= J L l B.OXOX5XP.K.J.G.Z.%     + 4 4 O X o 3 3 # X X $ 1 - X   + 5 ",
"5 # 1 $ X X @ 1 1 O   o 3 5 - o X - o 5 C.S.F.S.J.P.I.5Xq j z K L U x w OXI.I.L.G.D.F.S.e o %   X - 5 3 X   + 2 2 O   o 1 2 # 5 ",
"4 # u 3 X X o y e o X X e C.$ o   o u V.C.C.A.D.F.K.K.* k j z K J Y I Z * J.K.H.F.D.S.D.D.' O X X - V.5 X X O s u X o X 5 a + 4 ",
"2 + O + O X + O + @ X @ # @ %   - s B.B.V.V.Z.A.S.a b C l k z J I I T T Y B ' S.D.D.S.S.D.F.D.-   % @ % O o # O # @ X @ + @ # 2 ",
"2 o X X 2 e + X   $ a 5   X   e V.C.' ' B.V.B.V.w 0.d.^ C k z K I I T R ) t.H 8 Z.A.S.D.D.G.K.G.a . X X y a #     $ u 3 X X O 2 ",
"4 o X X 2 7 # X X - u 2   + d Z.A.C.V.B.B.' ' t m.M.v.7.D l l V T G R R 5.f.a._ : Z.D.F.G.G.G.J.J.A.#   e p #   X - u 2     @ 4 ",
"2 # @ # o o @ + # @ X o - V.Z.Z.Z.C.V.V.' y f #X,X2X2XN.4.M l Z F | | 7.z.d.p.6.~ l ' G.G.G.H.H.J.K.F.3 o X # # # + X @ # + # 4 ",
"2 # u 1 X X o u y X X X - Z.Z.Z.Z.B.B.B.5 *.:X=X%X,X1X1Xv.} v A ..} 3.z.b.d.6.( W P c w G.G.G.H.J.J.H.1   X O f p X X X 7 d + 4 ",
"2 # $ $ X X @ - 1 O X o X s C.Z.C.V.Z.r &X1X,X:X*X=X*X,X3Xj.{ S } { q.M.c.u.` Q W W W U : G.G.G.H.J.Z.X X X + 2 2 O   o 1 1 # 2 ",
"2 O X o - 1 #   X % 3 1   7 B.V.B.B.Z.O.1X1X,X:X!.{.{.{.-X:XR.&.:.%.2X2Xi.` ( ~ Q Q W ! c D.F.D.F.F.a X 2 5 #   X $ 4 1 X X + 2 ",
"2 X X X 2 u + X X % a 9 X % B.V.B.B.V.0 l.M.,X,X=X~.].(.XX].~.<.<.&X1Xn.r.` ` ( ( ( / / q S.S.S.D.S.$ X y V.# X X 1 d 9 X X O 2 ",
"3 @ X O + O # o o # O # O X a B.s ' B.2 %.k.j.m.%X=X{..X)._.XX~.E.:X2Xf.u.s.t.t.r.r.` ~ 4 ' C.C.Z.d   @ # O # o o # O # O o + 1 ",
"1 # e 1   X o e 7 o X X 5 - 7 f p s d u , #.%.>.1.E.~.'..X).).oX;X:X#X+X<.>.w.%.q.9.9.N u ' ' B.V.y 4 5 X X O y y o X X 6 p + 3 ",
"1 # 5 - X X O 6 6 o X X 5 u # u u s a u ; O.$.+.-.U.U.Y./.(._._.oX`.Y.h h h g -.+.%.@.> p s d d B.% p 4 X X O e y o X X 5 y # 1 ",
"3 O X O # + # X o # + # o X X p d d ' a 4 #.%.>.>.k.+X@X#X*XwXXX_.).)./.Y.U.^.-.+.$.@.; p a s ' s X X @ # # % X o # + % o X # 1 ",
"1 o o X 4 p + X   $ d 2   X   u V.C.Z.B.d H t.s.g.z.n.v.m.%X[.{.~.|._.).(.'.Q.W.<.>.] e p a d ' y   X X i B.+ X X - ' 9 X X O 1 ",
"1 @ X o $ $ # X X % 1 1 X X + 1 Z.A.D.A.A.m r.` p.a.d.x.$X!.!.Q.E.-X}.].).(.'.~.@Xm.t a d d ' ' $ O   o 3 3 % X X $ 1 - X   + - ",
"1 $ 1 1 X X @ 3 2 o   o 1 2 % o Z.D.D.D.S.q ) ( 6.e.d.m.:X;X@XW.<.+X:X}. X.X(. X!.@X9 a s ' V.d   1 5 2 X   @ 9 4 O X o 2 4 # 1 ",
"- % p 3 X X o p i o X X 7 s +   ' F.F.G.D.d E ( ) u.j.%X:X#X<.,.:.&.%X3X=X~.{.{.{.^.5 u a ' ' i . 1 C.6   X O s p X X X 7 d + - ",
"1 + O + O X + @ + + o @ + @ % X 5 D.F.G.F.D.m ` t.n.m.,X%Xh.&.:.$.[ k.<X,X#X@X=X~.f i u p a d % O # O % O o # @ # + X + + @ # - ",
"- o X X 4 y + X   % i 2   X O u @ A.F.F.D.S.* y.i.v.<X,Xj.X.o.o.X.S X.x.M.m.$Xl.+X8 p p u p u o p o X X 7 p #     - a 2 X X O 1 ",
"1 o X X 2 e #   X % e - X X O e + V.F.A.S.Z.e 0.c.N.<Xv.4.{ } { | A S g.z.N.M.m.h.6 s p p a 6 $ u o X X 6 y # X X - y 9 X o @ 1 ",
"1 # @ # o X + + # O X O # # % X X 6 S.Z.C.Z.C.=.c.M.N.8.D { { G G B B 3.7.d.v.b.=.V.' ' d a % X o % # % o X + + # @ X O % # % 1 ",
"1 # a 3 X X o u e o o X 6 ' + X X O C.Z.Z.Z.Z.q v.N.g.E C S S D I V x I 5.6.d.c.t B.B.' ' s o X X 1 C.6 X X O d p X X X e d # 1 ",
"1 # % $ X X + - - O   o - - % X X o a Z.Z.Z.Z.i q.0.3.B v n n B B x l x T 3.E 2.w C.Z.B.C.u o   X - 3 3 X X + 1 3 O X o 1 1 # 1 ",
"3 o X X 1 2 + X X % 2 2 X   @ 4 4 o 2 A.Z.Z.Z.S.H.K.P.OXL.L.P.P.P.I.OX5XP.K.J.J.F.Z.C.C.V.- @ 6 6 O   o 2 4 #   X $ 4 1 X X @ 1 ",
"3 o X X 9 u + X X $ f 6 X X O a p o O C.A.A.S.H.J.L.OXI.P.P.I.I.I.OX6X6X5XI.K.J.H.D.Z.Z.' o O ' s X X X e f + X X $ d 2 X X O 1 ",
"2 @ X @ + O # o O + O # O X + + + + . d A.S.F.K.L.I.5XI.P.OXOXOX5X5X6X7X6XOXL.K.K.J.S.Z.s   % @ + # o @ + O # o O # O # O o # 3 ",
"2 # e 1 X X o y 7 o X X 5 u #   X - y 8 D.H.H.L.I.6X6X5XOX5X5X6X6X5X7X7X8X6XOXP.K.K.F.D.4 s %     1 s 4 X X O u e X X X 7 u + 2 ",
"2 % 5 - X X O 7 6 o X X 2 7 # X X $ u + f d V.V.C.A.A.A.Z.A.Z.C.Z.Z.S.S.D.D.A.V.B.B.B.d @ a %   X 1 u 2 X X O y 7 o X X 5 e # 5 ",
"5 O X o # @ + X o # @ % o o % + # @   o O O O     @ O @ X   O O @ o   o @ O @   X O O + o X # % $ +   @ % # # X o % + % o X + 2 ",
"2 o X X 9 u + X X % u 1 X o O f u o o X e V.+ X   - C.6   X O V.d o X X u A.# X X 1 D.7   X o V.s o X X y B.+ X X $ B.9 X X O 4 ",
"2 O X o % % + X X # $ % X X + 3 3 O   o 1 3 % X X $ 3 2 o   + 2 9 O   o 2 2 $   X - 3 2 X X # 2 2 O   O 1 1 % X X % - - X X + 2 ",
"2 % 1 $ X X @ 1 2 o X X 1 2 # X o $ 4 3 X   + 4 5 O   o 2 6 $   X 1 7 4 X   + 7 7 O   o 4 7 %   X $ 5 2 X   + 2 5 O X o 1 2 + 4 ",
"2 # y 1 X X o e 7 o X X 5 u @ X X 1 a 4 X X O a u o X X y V.#     1 A.7   X O V.' o X X u C.#   X 1 C.5 X X O a u X X X 7 a + 2 ",
"5 + o + O X + O @ @ X + @ O # o o # O # O o # O + + X + # @ % o O % O % @ o # + # # X # # @ % o O % O # O o # @ + + X + + O # 4 ",
"5 X X X 1 5 @ X X % 7 - X X o 7 6 o o o 5 y + X X - s 5     O a u o X X y ' #     1 B.5   X @ s u o X X e p + X   $ u 1 X X O 5 ",
"5 o X X $ 2 + X   # 5 - X X O 5 4 o X o 5 7 # X   $ y 2 X X O y u o X X 7 a $     1 p 6 X   @ u y O X X 5 y # X X $ 7 1 X X O 5 ",
"5 # O + o X @ + # O X o + + # X X # + $ O o + + # + X O % # % X o $ # $ o X # # $ + X @ $ # $ X O $ # $ o X + + % O X O # + + 7 ",
"7 # y - X X o e 6 o X X 3 u @ X X # u 3 X o o u y o X X e ' + X   - C.5 X X O B.f o X X y Z.# X X 1 B.2 X X O a y X X X 5 a O 7 ",
"5 # # # o X O + # o X o # # #   X # # # X X + $ - O X o - - # X X $ 1 1 X X + - 2 O X o 1 1 #   X $ 2 1 X X + $ 1 O X o $ $ # 5 ",
"5 2 o o $ $ + X X # - % X X O - $ o X o - 1 #     % 3 1 X X @ 4 4 o   o 3 5 %   X $ 4 2 X   + 2 5 o X O 1 2 #   X % 3 1 X X 4 6 ",
"7 5 3 o - 5 O X X # e $ X X o 5 4 X o X 3 7 @ X X % u 3 X X O p u o X X 7 f + X X $ d 2 X X O a y o X o 6 a + X X $ u 3 o 2 6 6 ",
"7 6 6 2 o X o X X o X o X X o X o X X o o X o X X o X o X X o o X o X o o o o X o o X o X X o X o o X o o o o X X o o o 2 6 6 7 ",
"7 7 6 6 6 6 7 e 7 7 7 7 7 7 7 7 6 5 6 6 6 5 5 4 2 4 4 4 4 2 2 3 3 3 1 3 - - 1 - 1 1 1 1 1 2 2 2 2 4 2 2 4 4 5 5 5 5 6 5 6 5 6 7 "
};
