/* XPM */
static char *result[] = {
/* columns rows colors chars-per-pixel */
"64 64 207 2 ",
"   c #0F0F0F",
".  c #080603",
"X  c #161009",
"o  c #1C170E",
"O  c #131313",
"+  c #1C1814",
"@  c #1B1B1B",
"#  c #181717",
"$  c #120E07",
"%  c #251C0F",
"&  c #231D14",
"*  c #211E1A",
"=  c #2C2213",
"-  c #22211E",
";  c #2F271C",
":  c #382C18",
">  c #3E3019",
",  c #232323",
"<  c #292622",
"1  c #2D2A25",
"2  c #2C2C2C",
"3  c #312E2A",
"4  c #302C25",
"5  c #35312B",
"6  c #3B362E",
"7  c #3A3020",
"8  c #333333",
"9  c #393633",
"0  c #3D3A34",
"q  c #3B3B3B",
"w  c #43341C",
"e  c #48371D",
"r  c #4D3B1E",
"t  c #463316",
"y  c #463824",
"u  c #513E21",
"i  c #443E34",
"p  c #75521C",
"a  c #4E402A",
"s  c #554429",
"d  c #594526",
"f  c #49433B",
"g  c #584A33",
"h  c #5D513E",
"j  c #654E28",
"k  c #664D24",
"l  c #6B532B",
"z  c #765A2D",
"x  c #614E31",
"c  c #635135",
"v  c #6A5533",
"b  c #64553C",
"n  c #6E5B3C",
"m  c #7A5E32",
"M  c #735C36",
"N  c #7A643F",
"B  c #444344",
"V  c #494643",
"C  c #4D4C4D",
"Z  c #4D4A45",
"A  c #514A40",
"S  c #514F4C",
"D  c #5D5242",
"F  c #55524D",
"G  c #5B554C",
"H  c #5F584D",
"J  c #504F50",
"K  c #545454",
"L  c #5B5956",
"P  c #585658",
"I  c #5B5B5B",
"U  c #6A5E4A",
"Y  c #615D57",
"T  c #69604F",
"R  c #7B6A4D",
"E  c #786547",
"W  c #67635D",
"Q  c #6E685E",
"!  c #7B6C55",
"~  c #7D705A",
"^  c #646464",
"/  c #6C6B6B",
"(  c #6B6A67",
")  c #726E66",
"_  c #73716D",
"`  c #7A7469",
"'  c #747373",
"]  c #7C7874",
"[  c #7C7C7C",
"{  c #8E5D12",
"}  c #875D1D",
"|  c #8C601D",
" . c #936216",
".. c #95651A",
"X. c #9A691D",
"o. c #98671A",
"O. c #875F20",
"+. c #8A6123",
"@. c #87632B",
"#. c #956A26",
"$. c #9C6C22",
"%. c #946B2A",
"&. c #9B6E29",
"*. c #9D722E",
"=. c #836434",
"-. c #8D6D3A",
";. c #876A3B",
":. c #926D33",
">. c #916F3A",
",. c #9C7234",
"<. c #93713C",
"1. c #9B763D",
"2. c #9D793F",
"3. c #977034",
"4. c #A06F22",
"5. c #A37225",
"6. c #A6752A",
"7. c #A8772A",
"8. c #AB7A2D",
"9. c #B07E2F",
"0. c #AE7D31",
"q. c #B07F33",
"w. c #8F764F",
"e. c #967847",
"r. c #8E7855",
"t. c #917C57",
"y. c #816842",
"u. c #A27D41",
"i. c #897A64",
"p. c #AF8139",
"a. c #B48235",
"s. c #B68539",
"d. c #B8863A",
"f. c #BC8A3D",
"g. c #B88537",
"h. c #9C8157",
"j. c #A68043",
"k. c #AC8445",
"l. c #AB864C",
"z. c #B28947",
"x. c #BD8D42",
"c. c #B38B4A",
"v. c #B58A47",
"b. c #BF9044",
"n. c #BE924C",
"m. c #A6895C",
"M. c #B28D53",
"N. c #BD9554",
"B. c #B89258",
"V. c #948369",
"C. c #83817E",
"Z. c #898072",
"A. c #90897D",
"S. c #998B75",
"D. c #9D917D",
"F. c #A68F6D",
"G. c #B49562",
"H. c #BA9964",
"J. c #B39668",
"K. c #AA9676",
"L. c #B59C74",
"P. c #A9926D",
"I. c #BAA17A",
"U. c #C18F42",
"Y. c #C39345",
"T. c #C5964B",
"R. c #C8974B",
"E. c #CB9A4D",
"W. c #C69952",
"Q. c #CD9D52",
"!. c #C59C5B",
"~. c #D09F53",
"^. c #CFA25A",
"/. c #D0A054",
"(. c #D2A45B",
"). c #C39E62",
"_. c #C8A368",
"`. c #D1A763",
"'. c #C8A978",
"]. c #838383",
"[. c #8A8986",
"{. c #8B8B8B",
"}. c #918B83",
"|. c #99938A",
" X c #939393",
".X c #9B9B9B",
"XX c #9A9997",
"oX c #A89A84",
"OX c #A19E97",
"+X c #BEA885",
"@X c #A8A095",
"#X c #B4A998",
"$X c #A3A3A3",
"%X c #ABABAB",
"&X c #AAA7A3",
"*X c #B3B3B3",
"=X c #BBBBBB",
"-X c #BEBAB2",
";X c #B5B1AC",
":X c #C2AE8D",
">X c #CEB48B",
",X c #C5BCAD",
"<X c #D2C9BA",
"1X c #C4C3C3",
"2X c #CBCBCB",
"3X c #D2CDC6",
"4X c #D2D2D2",
/* pixels */
"I I P P P I I I I I P P I P I P K K I K K K K J J J C J J J C C B B B B B B B B B B B C B B C C C K C C C C K K I K I K K P I I ",
"I P P C @ # @ O # @ # @ # O @ @ @ # O @ @ @ @ O @ @ @ @ @ O @ @ @ @ O @ @ @ @ O O @ @ @ @ O @ @ @ @ O @ @ @ @ O # @ O , C I K I ",
"P P C @ C ( 2 O O 8 ' C O O , ' ' @ O   ^ {.8     C .XI   O , {.{.@ O   ' $Xq     C .XI   O , [.[ # # O ^ {.8 O O B {.K # C P P ",
"P J # @ q q 2   O 8 B q O   2 C K ,   @ C J q     B K K O   8 I K 2   @ J I q   O C K J O   2 K K ,   @ C C q   O q C B O O J P ",
"P 8 q 9 #   2 B B @   @ B B 8 O O q S C O   2 K I , O @ K I q   O B I J O   2 K I 2   @ K K q   O B J C O   2 K K , O @ C C 8 P ",
"P 8 ^ B   # @ ( ^ @ O O P [ 2 O O q [.K O O , {.].@ O @ / .X8     B .X^   O ,  X].@ #   /  X8 O O B  XK O O , ].' @ @ O ^ [ 2 I ",
"I 2 , 2 @ O 2 , 2 2 O 2 2 2 8 @ @ q 2 q , O 8 2 8 8 O 2 q 8 q @ @ B 2 q , O q 8 q 2 # 2 q 2 q @ @ q 2 q @ O 8 8 8 8 @ , 8 2 8 I ",
"I @ # # C P 2 O   q ^ B O O , / ^ @ O O I [ q     B ].I O O 2 [ ' @ O   / ].q     B ].I   O , ' ' @ O O ^ [ 8 O O B [ K O O , I ",
"I @ O @ B P 2 O O q ^ C   O , / ^ @ O O ^ ' q     B C.L O O < [ ' @ O O ^ C.q     B C.L   O , ' ' @ O O ^ ' 8   O B [ K O O , I ",
"I 2 , 2 @ # 2 2 2 2 O , 8 2 8 @ @ q 2 q , # 8 8 q G h.H.H.W.T.f.n.n.N.H.m.R F 8 q 8 O 2 q 8 q # @ q 2 q , # 8 8 8 2 O 2 q 2 q I ",
"I 8 ^ B O # @ ^ ^ # O O I [ 8 O O q {.K O O f I.H.s.p. .X.X.o.o.X.X.$.$.o.4.p.G.K.1 O O / XX8 O O B .XI   O , [ ' O O O ^ ].2 I ",
"I 8 8 q O O 2 q q , O @ B C 8   O q C B i G.f.p.o.o.a.d.f.Y.E.W.E.E.T.f.a.p.o. .#.j.h.5 K K q   O B K C O   2 C K , O @ B K q I ",
"P @ O @ B B 2 O O 8 B B O   2 C K , O h.d.o.{ p.f.T././.(.^./.W.A.@X+X'././.Q.f.p.{  .s.T   2 I I ,   @ C K q   O B C B O @ 8 I ",
"I # O O J / 2 O @ q [ J   # @ [ ' 0 B.p. .p.f././.^.I.D.( s /./.z f {.XX&X#XI.`./.f.p.{ p.m.2  X].O O O / ].8 O O q ].K O O , I ",
"I , O , 2 , 2 @ , 8 2 8 @ # 8 2 E c. .p.f./.`.+XOX{.' I & j./././.h. X' ] .X$X%X#XW./.f. . .M.f 8 8 O 2 8 2 q @ @ 8 , 8 , # 2 I ",
"K 8 P B O O , I I , @ # K / 8 U a. .a.T.'.#XXX X_ ^ .XG j././.^.^.oXQ %XA.L {.%X XOXN./.b.4.{ p.8 B [ K O O , / ^ @ O O K / 2 P ",
"P 8 P q O O , P L @ @ @ K ( T p.X.p./.+X X]. X8 % _ ' b K.D.|.|.;X=X` [ =X=X/  X%X' {.J./.E.p.{ h.Y ' F   O , ( ^ @ O O K ^ 8 P ",
"I , O , 2 2 2 O @ 8 , q , 9 p.X.d./.+X[ ( $X# 2 ].[ .X{. X] .X%X$X*X] l {.=X1X[ $XXX' [.D.E.T.p.{ l.# 2 q 2 8 # @ 8 2 8 @ # 8 P ",
"P O # O J / 2 O O 0 ' C - l...p.Q.L.[ ( %Xq  X%X].S ].$X X[ {. X{.$X) j.e.$X*X=XC.%X X[ _ A.J.E.a.o.w.  ^ ].2 O O B [ C   O @ I ",
"K , O @ q q 8 O # q q B h...p.!.D.( ].$X/ {.&X%X< g 6 L q {.[.XX%X$X] j./.~ %X=X$X X{.{.' ^ ' C.l.$.#.h V C 8 O O q B B O   2 P ",
"K 8 B q # O , B B -   6 *.X.z.( /  X.X X^ *X.X[ d F.P.V.}.%X$X.X$X=X[ >./.m.%X*X=X.X{.].[ [ / ^ d T.o.j.#   2 C C ,   @ B C 8 K ",
"K 8 / B O O @ ^ ^ # O w. .s./.' [..X X[  X%X.X/ m ) [ ^ K I {.].%X*X X;./.<X%X=X1X.X[.].[ ' ].].h /.a.o.E O , ' / @ # O P ' 2 J ",
"J 2 , 2 @ @ 2 , 2 2 6 &.4.E.N.[.{..X.X[ .X$XXX&XM Q.j j.j.C.( I S ' h N <X=X%X1X*X X[.[ [ ' [ ].T /.E.X.2.- 8 , 2 2 # , 2 , 8 C ",
"J @ O O J I 2 O   q P. .f./.m.C.[..X.X].$X%X$X$X*XL./.J.$X%X.XV j.j.K.3X*X$X1X=X X.X/ ].].' [ [ ( z./.a. .S.8   O q ^ C O O , C ",
"C @ O # C P 2 O O B j.#.T./.Z.[ ].{. X{.{.$X*X$X$X*XOX X*X$X{.8 >X<X2X%X=X1X$X{.[.[..X X' ' ' [ ' m /.T.| j.8     B ( C O O , J ",
"J 2 , 8 , # 2 2 8 F  .p././.) [ {.{.$X X[ ].$X*X=X$X%X*X%X$X.X1X4X1X1X=X%X[.].].[. XI  X*XXX[ [ C.n /./.p.%.f 8 8 2 O , 2 2 8 J ",
"J 8 / B O O @ / ^ N  .f.^.N.' [  X$X{.I [ [ [ {.$X*X*X*X%X$X=X=X*X%X$X X].].XX X X=X1X[.I $X%X].].W E./.s...h [ / O O O I [ 2 J ",
"J 8 q q O   2 B B ;.$.b.^.~ '  X%XI ^ %X$X.X.X{.[. X$X%X.X$X%X$X{. X{.XX$X*X=X1X X*X1X4X%XB ' $X X/ c /.b.X.E Z C , O @ B B 8 J ",
"C @   @ q B 2 O   %.4.E.Q.n ].]., [ 2X=X$X$X=X$X X.X X$X XXX.X{.{.*X=X1X2X=X2X$X1X*X.X%X1X*XS B {.q e /.E.4.-.    q C B O O 2 C ",
"C @ # O C / 2 O O ..a.Q./.P.^ # ^ *X.X X%X%X1X' =X%X$X X X[ {.K  X*X4X%X4X.X2X$X*X=X1X]. X$X{.^ 3 ^ R W.E.4.:.O   B ].J O O @ C ",
"B 2 O , 2 , 2 @ @ ..s./.h.C 8 /  X[ [ =X%X%X$X[.2X%X*X[ [.].I ' @ S *X/ 2X$X=X$X.X2X$X.X1X X[.{.J _ 6 j.Q.a.>.# @ 8 , 8 , @ 8 B ",
"B 8 I B O O , I I $.s./.j.L [.I J [.*X.X*X%X[ .X%X$X/ K {. X.X/ @ f + h  XJ .X%X{.=X$X$X1X.XI V C.{.s /.Q.p.%./ ^ @ O O P / 8 B ",
"B 8 P B O O , I L $.a././.) ].].[ {.%X.X;XI ; B : 6 e h ' {.XX{. X' -.n.$ =.` 6 _ %X%X{.=X.X^ $X].' d /./.8.#.^ ^ #   # P ^ 8 B ",
"B , O - 8 , 8 O @ | a././.T ].[  X X.X.X.X; /.p.n.-.j./.Z / ].[. X*XOXV.<.~.j.: N ^ %X[ %XXX[.*X[ [ N /./.8.*.# @ 8 2 8 @ O 8 B ",
"B @ # O J ' 2 O   #.p.E./.h.[.' [.[..X.X{.: /./././././.j.3 ^ _ [ {.%X%X_ j.Q.p./.n .X[ .X X].%X/ [.d E./.8.,.O   B C.C   O - B ",
"B 2 O @ q q 8 O O :.8.W.^.~ ]./ ].[  X{..Xh /././././././.c.< 3 C K /  X$X' j.^./.H.%X]. X{.[ .X/ {.e /.E.6.<.  O q B B #   2 B ",
"B q B B O O , C C ;.7.E./.W [ / [ ' {.{.$X.XV./././././././.W.> . , B L [  XC z.~.|.@X' {.[.[  X( XXG ^.T.&.N K J -   @ C C 8 B ",
"B 8 ' B   O - / ( h 5.Y./.K ' / ' / {.[ .X].H j././././././././.<.u - B I [ I u ~.h ' / {.[ ].[ /  XZ -.Y.$.h [ / # O O I [ 2 B ",
"B 2 , 2 - # 2 , 1 f 6.f./.<.^ _ / / [ [ XXf ;.W././././././././././.c B K ^ C d ^./.[.^  X/ ].^ ]./ > /.f.$.f , 8 2 # 2 8 , 8 q ",
"B @ O O C ^ 8     q 3.a.E./.W / I / ' ' {.K z./././.Q./././././././.D.( B L , j ^.I.%XK .XI [.K {.q <./.a.-.8     B ' C   O , B ",
"q @ O O C I 8 O O q ! 6.b.(.R ( K / ^ ' '  X~ /./././.Q././._.+X,X=X$XK q < X z.H.&X[ L .XC {.q [.; N.Y...! 2 O   B / C O @ 2 B ",
"B 8 2 8 @ O 2 2 8 , # *.s./.h./ q / L [ ^ ^ ( w././././.H.<X1X$XC.K 2 @ % = ;.Q.h.Q 1 {.' / / 1 [ ; /.a.@.- 2 2 8 , O , 8 8 8 B ",
"B 8 ' B O O @ / ^ @ O n a.b.M.^ 2 C ^ L [ ].].v /././.I.1X{.2 . . % > m n.W././.I.=X( .XB {.< h _ e Y.$.v O , [ / O O O ^ [ 8 B ",
"B 8 q q O O 2 q q ,   < *.a.E.Y 2 x ^ S I ' {.] W./.H.&XL . o r =.j.n././././.(.-X]. XK ( ^ > V.S N 6.%.- O 2 B C , O @ B B 8 B ",
"B @ O # B C 8 O O 8 C C d 5.f.T 3 /.g ^ 0 I ' C.R /.A.' = k.z./././././././.^.I.&X[.^ q [ X b.Z.1 *.o.g C J 8   O q J B O   2 B ",
"C # O O C / 2 O O q [ K   m p.1.7 W./.g L a V ^ I p.[ L l /././././././././.^.@X].C & [ * -.E.T t X.z O I [ 2 O O q [ C   O , B ",
"C , O 2 2 , 2 @ - 8 , 8 - - :.p.b.^././.v s n.g 0 m W ' l /././././././././.B.I 4 l h.> <./.(.3.| +.- 2 2 , 8 @ @ 8 , 8 , @ 8 C ",
"J 8 I B   O , ^ I @ O O F / 6 %.p.b./././.W././.z.E.N ^ [ B./././.j.M././././.j.z././.Q././.Y.a.| f [ S O O , ^ ^ @ O O P / 2 C ",
"J 8 K B O O , I K @ O O C I 8 - #.p.f.~.~.~./././.~./.y B _ A.K.K.f < D h.T././././.Q././.Y.4.z = B / C   O , I I @ O O K ^ 2 J ",
"J , O @ 2 2 2 @ @ 8 2 8 @ # 8 2 6 m p.g.~./.~.~././././.j o , 8 0 3 B 0 ; m /././././.Q.g.4.p q q 2 O , q 8 8 # @ q 2 8 @ # 2 J ",
"J @ @ O J / 2 O O 8 ' B O @ 2 ' / @ k p.a.f.~././././././.n.;.-.n.p.l N n.Q.Q./././.f.a.X.p , ].[ # # O ^ ].2 O O B [ C   O , J ",
"J @ O @ 8 q 2 O O 8 8 q O O 2 C Z - . a #.a.a.Y.~././././././././.^./././././.T.b.a.4.| >   2 C C ,   @ B B 8 O O q B B O   2 J ",
"C 8 B q O O , B B @ O @ B C 2 O @ q C B O k ..p.a.d.Y.E././././././.(./.E.f.g.a.5.| r # K I q     B I C     2 J J ,   @ C C 2 J ",
"J 8 ^ q O O , I I # O O J / 2 O O B ' C O O - T @.X.5.p.a.a.a.f.f.f.a.a.4.p.p.%.R # O O / {.2 O   B [.K   O , ' / O O O P ' 2 J ",
"J 2 @ 2 @ @ 2 , 2 2 # , , , 8 @ - 8 , 8 - @ 8 , 3 5 a m %.&.p.5.4.p.*.:.m s 0 2 2 8 # 2 8 , q @ , 8 , 8 , # 8 , 2 2 O 2 2 , 2 J ",
"K # O # B P , O O 8 P B O O , I I @ @ O K ( 2 O O q ' F   O * _ / + O O ^ [ q   O B ].L   O , [ ' # O O ^ ' 8   O q / C   O , K ",
"K @ O O q C 2   O 8 J q O O , J J @ O @ K I 8 O   q ^ J O O , ^ ^ * O O I ' q     B ' K O O , / ^ , O O K ^ 8     q I B O O , K ",
"I 2 , 2 @ O 2 2 2 , O , 2 2 8 O @ 2 2 q , O 2 2 8 2 O , q 2 q O @ q 8 q @ O 8 8 q 2 O , q 8 q # , q 8 q @ O 2 8 q , O , 8 2 2 P ",
"K 8 ^ B O O @ I P O # O C ^ 2 O O 8 / C O O , / ^ # #   I ].2 #   B [.K O O @ ].' @ O O ^ {.8 O   B ].C O O , ' ^ O O O K ' 2 K ",
"K 8 8 8 # O , 8 8 , O @ 8 q 2   O 8 8 8 @ O 2 q B @ O @ q B 8   O q B B # O 2 B C , O @ B B 8   O q C B O O 2 q B , O @ q q 8 K ",
"I C # @ 8 q 2 O O 8 B q O O , q q @ O @ q B 2 O O q B B O   2 J C -   # V J 8 O O q J C O   2 J K ,   , B J 2   O 8 C B O O J P ",
"P P C # B K , O O 8 I q O O , K C # # O C I 2 O   q / B O O @ ' ^ @ O O I [ 2 O O q [ C   O , ' / O O # P ' 2 O O q / B @ C P P ",
"I P P C @ # #   O @ # # # O # # # # O @ @ O @ O O @ @ @ # O @ @ @ @ O @ @ # @ O # @ O @ # O # # # # O # @ @ @ O O @ @ @ J P P P ",
"I I P P K I I ^ I I P I P K I I I K P K K K K J C C J C J J C C B B B B B B q B B B B C B B C C J J J J J J K K K P P K K P I P "
};
